<?xml version="1.0" encoding="UTF-8"?>
<svg id="Capa_2" data-name="Capa 2" xmlns="http://www.w3.org/2000/svg" viewBox="0 0 1920 1167.66">
  <defs>
    <style>
      .cls-1 {
        fill: #8ca3b1;
        isolation: isolate;
        opacity: .1;
      }
    </style>
  </defs>
  <g id="Capa_1-2" data-name="Capa 1">
    <g id="Grupo_1" data-name="Grupo 1">
      <path id="Trazado_5" data-name="Trazado 5" d="M1920,0V1167.66H0V0H1920Z"/>
    </g>
    <path id="Intersección_2" data-name="Intersección 2" class="cls-1" d="M197.91,.03l27.65,56.33,21.33-5.79c-3.03-8.69-11.19-31.98-17.78-50.54h7.37l17.12,48.7,31.73-8.69L289.82,.03h7.11l-11.19,100.16,19.36-2.37L340.64,.16h14.88l-18.7,51.46,42.65,10.01L402.79,2.01l-4.6-1.97h12.9l-11.58,29.61,46.35,17.77c6.88-16.17,14.56-31.98,23.03-47.38h16.33c-21.07,36.33-37.13,77.39-48.06,110.81l99.81,7.64L517.22,.03h14.22l6.32,37.77,57.27-9.74,.53-7.63L583.58,.03h8.17l4.74,8.03,.52-8.03h6.98l-1.97,26.85,41.87-7.11-1.45-19.61h14.09l.27,3.65V228.69l-12.51,42.72,12.51,1.06v14l-16.46-1.38-16.33,55.8,32.79,15.81v25.74l-8.69-4.17-30.29,106.61,28.57,16.05,10.4-31.95v22.59l-3.82,11.73,3.82,.64v7.05l-6.06-.98-20.41,62.65,26.47,10.78v7.61l-28.57-11.68-36.6,112.13,65.18-6.2v14.17l-98.23,9.27,70.31,80.67c4.8-.46,18.24-1.81,27.92-2.67v6.86l-25.69,2.52,2.64,39.34,23.04-2.93v23.56l-20.41,2.54,4.74,29.87c5.74-.9,11.12-1.74,15.67-2.46v7.21l-14.62,2.22,4.87,30.14,9.74-1.28v7.06l-8.57,1.19,6.59,41.32,1.98-.19v13.99l-55.04,5.28,8.69,61.86c14.66-3.02,30.25-5.34,46.35-7.08v14.05c-2.7,.29-5.37,.6-8.03,.93l4.08,55.67,3.95,.48v14.2l-2.77-.34,2.5,34.74h-14.09l-7.64-102.78c-8.16,1.32-16.06,2.63-23.7,4.34l-7.11,98.44h-6.98l6.98-96.73c-20.81,5.01-38.98,11.71-52.93,20.79-.92,.66-1.97,1.45-3.03,2.11l43.58,73.83h-8.16l-18.56-31.45-35.16,20.93,1.71,10.53h-14.22l-6.32-38.03c-9.55,11.98-18.13,24.7-25.68,38.03h-16.33c1.97-3.68,4.08-7.37,6.32-11.05l-52.8-18.3-11.46,29.35h-12.9l-36.87-15.4-5.66,15.4h-14.88l1.18-3.42-43.06-13.29-1.85,16.71h-7.11l2.24-18.82-33.71-10.53c-4.6,1.32-16.2,4.6-29.23,8.16l7.51,21.32h-7.38c-2.77-7.76-5.14-14.74-6.85-19.48-10.8,3.03-21.73,6.05-29.89,8.29l5.39,11.05h-26.07l-2.37-4.6-15.93,4.6h-50.17c24.23-6.98,46.61-13.56,59.91-17.37l-22.39-45.67-52.28,8.82,6.72,54.22h-14.09l-6.58-51.98-53.46,9.08-7.9,42.9H0v-55.89l3.56-18.85-3.55-1.05v-7.21l4.35,1.28L0,1076.41v-33.35l8.95,19.3,19.62-106.86c-6.17-4.15-11.38-9.58-15.27-15.92L0,947.57v-8.29l10.01-6.02c-2.74-6.45-4.18-13.39-4.21-20.4,0-1.05,.13-1.97,.13-3.03L0,908.72v-23.79l12.77,2.39c7.57-13.07,20.54-22.13,35.42-24.75l19.62-61.2L0,787.8v-7.18l31.21,6.29c.79-5,2.37-14.61,4.08-25.01L0,757.24v-7.07l36.34,4.89c1.59-9.87,3.16-19.61,4.21-25.93L0,721.48v-14.23l43.19,8.07,16.07-73.44L0,697.22v-9.71l60.31-56.16-24.1-29.48L0,623.36v-16.2l27.26-16.21-20.28-24.61L0,570.47v-8.23l2.63-1.56L0,557.47v-11l33.32,40.8,70.31-41.72L0,526.93v-23.76l27.26,4.87,13.17-78.31L0,420.12v-7.2l41.61,9.97,7.77-46.46c-17.38-3.28-34.22-6.56-49.38-9.46v-14.23l32.92,6.31,10.53-73.31-32.26-6.58L0,325.79v-30.38l4.22-17.55L0,277.01v-14.34l45.3,9.13,6.18-43.03L0,218.62v-7.01l52.54,10.32,7.5-52.64L0,159v-14.26l62.02,10.59,7.38-51.72L0,94.13v-14.03l30.15,4.16,7.64-50.41L5.53,43.2,0,72.87V.17H13.56l-5.14,27.64C25.28,22.81,53.46,14.64,82.04,6.36l-.79-6.19h14.09l.27,2.24c2.63-.79,5.14-1.45,7.77-2.24h50.16l-57.67,16.58-5.13,36.33,92.96-28.82L171.84,.03h26.07ZM81.25,21.09l-35.95,10.4-8.03,53.43,34.24,4.74,9.74-68.57Zm566.85,55.01l-3.68-49.35-105.47,18.03,7.11,42.38,102.04-11.06ZM199.1,55.58l-12.24-24.87-35.16,11.05,6.58,25.53,40.82-11.71Zm244-1.59l-46.23-17.62-10.53,26.85,48.59,11.45c2.5-6.85,5.26-13.69,8.16-20.67h.01Zm-291.53,15.13l-6.58-25.4-55.3,17.11-3.82,27.11,65.7-18.82Zm127.07,31.98l5.92-53.56-55.83,15.27,20.66,42.12,29.24-3.82Zm93.36-26.98l-40.03-9.34-12.64,35.01,25.28,10.4,27.39-36.06Zm-148.28,31.73l-18.43-37.51-121.67,34.74-3.69,25.53,123.25,17.77,20.54-40.54Zm206.33-18.03l-50.69-11.85-29.5,38.82,28.44,48.43,28.97,.79c6.28-25.78,13.88-51.21,22.78-76.21h0Zm221.87,40.67l-2.76-38.3-100.86,10.93,5.93,35.66,97.7-8.29Zm-349.59-23.43l-49.77,6.45,16.59,33.69c5.22-1.75,10.69-2.64,16.2-2.63,1.1-.02,2.2,.02,3.29,.13l13.69-37.64Zm37.79,10.92l-23.3-9.61-14.35,39.34c3.86,1.32,7.54,3.13,10.93,5.39l26.72-35.13Zm-90.86,41.72l-21.6-43.96-32.65,64.23,40.03,6.85c1.83-10.29,6.8-19.76,14.22-27.12h0Zm288.89-31.98l-103.23-7.9c-6.19,19.61-10.67,35.93-13.3,46.59l123.51,3.56-6.98-42.25Zm-193.03-5l-26.33,34.61c2.26,1.91,4.33,4.02,6.19,6.32l45.03,1.32-24.89-42.25Zm307.19,14.6l-97.04,8.29,4.08,24.61,95.6,2.76-2.64-35.67Zm-521.82,7.63l-51.48-7.37-3.16,22.11,49.51,8.29,5.13-23.03Zm69.39,9.99l-62.41-8.95-5.27,23.29,55.7,9.35,11.98-23.7Zm113.24,40.8c.01-15.34-12.42-27.79-27.76-27.8-15.34-.01-27.79,12.42-27.8,27.76-.01,15.34,12.42,27.79,27.76,27.8h.02c15.33,0,27.77-12.42,27.78-27.76h0Zm-160.38-8.82l-78.87-13.42-3.95,27.24,77.82,14.61,5-28.43Zm217.39,1.32l-34.5-.92c.55,2.77,.77,5.6,.66,8.42-.02,2.73-.24,5.46-.66,8.16l29.23,14.08,5.27-29.74Zm59.25,31.98l3.82-30.14-55.83-1.59-5.79,32.64,44.24,21.32,13.56-22.23Zm-189.21-.79c-3.1-5.75-5.03-12.06-5.66-18.56l-67.94-11.58-15.67,88.84,89.27-58.7Zm304.7-26.18l-104.68-3.03-3.55,28.43,99.28,21.45,8.96-46.85Zm107.44,3.03l-93.23-2.63-3.42,17.9,89.4,9.34,7.24-24.61Zm-505.76,26.06l-77.69-14.74-2.9,20.66,72.82,37.64,7.77-43.56Zm449.14,.52l-41.35-4.34-15.93,83.19,34.36,16.58,22.91-95.42Zm47.28,4.87l-40.3-4.21-23.44,97.79,32,15.4,31.74-108.97Zm-170.78,5.79l-37.66-8.15-12.24,20.27,34.5,16.58,15.4-28.7Zm-221.47-.26c-2.52-2.37-4.82-4.96-6.85-7.76l-94.67,62.12-1.18,6.84,77.95,15.79,24.75-76.99Zm142.6,24.21l-66.51-31.97c-4.42,6.12-10.13,11.2-16.72,14.87l10.93,43.56,72.3-26.46Zm141.29-10.4l-55.3-11.98-16.21,30.28,62.28,30,9.23-48.3Zm-397.13,26.06l-72.55-37.51-5.79,40.93,75.05,15.13,3.29-18.56Zm174.72,71.47l-24.75-97.78h-2.1c-4.72,.02-9.43-.65-13.96-1.98l-27.52,86.2,12.51,30.93,55.82-17.37Zm127.59-64.62l-37.79-18.29-48.19,17.64,9.09,32.64,76.9-31.98Zm-69.66,83.83l-22.78-81.86-24.62,8.95,20.94,83.05,26.46-10.13Zm135.76-51.99l-57.67-27.77-26.99,11.19,22.91,40.14,61.76-23.56Zm-374.08-6.32l-74.66-15.14-10.53,73.3,72.42,13.95,12.77-72.11Zm305.74,32.51l-22.78-40.01-49.9,20.79,11.85,42.52,60.83-23.3Zm-215.94-14.34l-76.11-15.4-12.77,71.99,66.63,12.77,22.25-69.35Zm334.19,12.24l-32.52-15.66-67.94,25.93,78.87,54.1,21.59-64.37Zm-279.02,95.29l-36.34-89.76-41.48,129.37,77.82-39.61Zm358.41-57.11l-66.76-32.11-21.86,65.41,70.05,32.11,18.56-65.4Zm-151.82,59.22l8.3-53.7-44.24-30.4-26.86,10.26-21.2,108.05c18.83,6.58,40.69,14.21,59.78,20.92l24.22-55.14Zm-143.52,21.19l-26.07-103.18-54.91,17.11,39.63,97.78,41.35-11.71Zm72.95-92l-65.84,25.14,17.12,67.65c7.11,2.5,17.12,6.05,28.57,9.99l20.15-102.78Zm-303.11,27.64c-17.38-3.29-35.55-6.84-53.33-10.26l-22.12,131.48,11.32,2.11,64.12-123.32Zm422.14,16.98l-33.84-23.16-7.24,47.25,31.86,3.82,9.22-27.9Zm-336.82-.66c-15.67-3.03-44.9-8.55-78.21-15l-4.87,9.34,65.84,59.62,17.25-53.96Zm-55.17,29.09l-31.08-28.3-55.83,107.39,35.55,6.45,51.36-85.54Zm474.94,10.79l-70.44-32.24-8.03,24.08,72.16,30.14,6.32-21.98Zm-322.34,23.56l-13.04-32.24-82.03,41.73,73.61,18.82,21.46-28.3Zm227.65-28.29l-31.34-3.69-23.04,52.77c14.61,5.13,26.99,9.48,34.11,11.98l20.27-61.07Zm-344.72,26.19l-30.29-27.51-49.25,82.12,58.73,10.53,20.8-65.14Zm394.63-.39l-38.18-15.93-18.56,55.54,37.92,11.71,18.82-51.32Zm-228.32-6.05l-43.06,12.24-20.14,26.59,77.95,19.87-14.75-58.7Zm92.57,25.79l-67.95-23.82,16.07,63.57,38.71,11.58,13.17-51.32Zm170.26-5.27l-28.18-11.71-37.92,103.18,37,11.06,29.09-102.53Zm-106.79,27.5l-56.88-19.87-13.04,51.07,54.12,16.06,15.8-47.26Zm-280.99-10.52l-24.63-6.32-12.51,38.82,25.94,8.69,11.2-41.19Zm367.24,195.44l60.18-184.52-28.31-15.92-57.67,202.81,25.81-2.37Zm-323.39-184.38l-37.13-9.48-11.32,41.72,31.47,10.53,16.99-42.78Zm44.1,86.46l25.81-14.87-16.33-57.65-39.9-10.13-35.28,88.31,65.7-5.66Zm243.87-70.93c-7.9-2.5-27.26-8.55-37.66-11.71l-15.67,46.85,36.47,10.79,16.86-45.93Zm-181.85,35.14l-6.32-25.14-38.18-9.74,14.61,52.12,29.89-17.24Zm-125.62-1.32l-63.6-21.19-20.41,63.57,57.94,22.9,26.07-65.28Zm206.86,1.84l-61.76-18.29,15.41,60.81,46.35-42.52Zm-300.61-5.79l-22.65-4.08-43.72,25.93c-2.11,9.99-6.72,30.8-11.72,53.83l50.04,11.84,28.05-87.52Zm370.27,108.71l17.91-76.86-79.66-23.69-52.41,47.77,14.09,55.66,100.07-2.89Zm-136.02-44.35l-13.17-51.98-57.41,33.03c6.85,9.21,26.86,35.8,33.05,44.09l37.53-25.14Zm-308.91-37.38l-30.41,18.03,20.94,25.53,9.48-43.56Zm498.91,15.53l-29.36-8.69-11.46,49.22,26.86,8.56,13.96-49.09Zm-233.32,51.06l-34.11-45.4-67.94,5.79-1.31,3.29,69.52,59.09,33.84-22.77Zm-125.88-17.77l-57.54-22.77-13.17,41.19,55.3,20.14,15.41-38.56Zm46.74,11.19l-26.99-22.9-22.52,56.59,16.98,12.38,32.53-46.07Zm129.17,3.69l-4.87-19.08-35.03,23.56,12.24,15.4,27.66-19.88Zm-271.12,3.42l-49.38-11.58c-7.11,32.11-14.61,66.46-17.64,80.67l42.41,7.9,24.61-76.99Zm425.96,48.7l12.64-44.36-26.6-8.56-12.9,55.41,26.86-2.49Zm-222.4-3.55l-56.22-47.64-32.26,45.67,45.56,32.9,42.93-30.93Zm34.24-24.48c-3.95-5-9.48-11.98-12.37-15.66l-32.52,21.98,16.59,14.08,28.3-20.4Zm-160.5,6.06l-54.91-19.87-8.43,26.45c11.06,5.53,30.29,15.53,50.04,26.85l13.3-33.43Zm219.76,73.44l-22.38-88.84-62.02,44.61,17.12,57.11,67.28-12.89Zm94.67-48.3l7.11-30.27-96.65,2.9,8.82,35.01,80.72-7.64Zm-237.14,28.56l-64.92-46.98-13.43,33.82c16.46,9.74,32.26,20.14,43.06,29.48,1.85,1.65,3.61,3.41,5.27,5.26l30.02-21.58Zm-40.95,30.27c-1.08-1.16-2.22-2.26-3.42-3.29-24.36-20.93-77.29-48.83-100.59-60.67l-15.54,48.43,63.2,63.83,56.36-48.3Zm322.6,44.62l-10.93-92.52-32.66,3.16,12.37,93.97,31.21-4.61Zm-223.05-49.22l-12.51-41.59-31.6,22.64,13.04,33.82,31.07-14.87Zm172.49-39.48l-71.23,6.71,3.42,13.69,73.86,25.79-6.06-46.19Zm123.9,122.27l-2.76-41.85-66.49-76.34,14.89,124.9,54.37-6.71ZM88.23,737.96l-40.69-7.63-9.48,57.91,32,6.45,18.17-56.73Zm227.27,91.99l-35.16-91.07-30.15,21.72c18.3,27.76,33.18,73.83,41.21,102l24.09-32.64Zm199.75-21.58l-5.27-40.4-72.82-25.4,18.83,74.62,59.26-8.82Zm-72.82,50.54l-26.34-104.64-67.02,13.03,30.02,99.36,63.34-7.76Zm-278.61-43.3l-57.41-58.05-24.75,77.52,37.26,19.1,44.9-38.57Zm178.68-22.11l-10.01-33.17-30.68,14.74,18.7,48.3,21.99-29.88Zm-81.11,22.37c-6.45-17.24-13.96-34.22-22.12-46.72l-21.99,18.95,19.49,37.24,24.62-9.47Zm-31.2,12.24l-18.43-35.27-27.13,23.42,23.83,20.27,21.73-8.42Zm134.83,40.14l-20.02-66.46-51.22,69.49c.53,1.97,1.05,3.82,1.45,5.53l69.79-8.55Zm193.42-23.55l-4.21-35.01-96.52,14.22,8.16,32.11,92.57-11.32Zm-368.16,45.01l13.56-47.91-24.63-20.92-77.82,66.73c2.25,3.88,3.97,8.04,5.13,12.38l83.75-10.27Zm90.86-11.19c-3.42-12.9-9.61-34.22-17.38-55.93l-53.2,20.53-12.9,45.67,83.48-10.26Zm-167.89-19.48l-33.71-17.24-7.24,22.37c7.72,2.47,14.75,6.71,20.54,12.37l20.41-17.51Zm520.9,30.53l-4.74-30-53.06,6.45,7.37,31.32c10.4-1.59,31.6-4.88,50.43-7.77Zm-71.63-21.85l-95.46,11.71,3.69,13.95,98.89,4.6-7.11-30.26Zm-117.85,14.48l-58.46,7.11,35.29,56.59,23.18-63.7Zm-359.86,30.8c.01-15.34-12.42-27.79-27.76-27.8s-27.79,12.42-27.8,27.76,12.42,27.79,27.76,27.8h.02c15.34,0,27.77-12.43,27.78-27.76h0Zm332.08,38.69l-38.32-61.46-22.52,2.76-.13,68.17,60.97-9.48Zm38.97-59.35l-35.55,97.39,66.9,23.56-31.35-120.95Zm-107.05,69.88l.13-68.44-74.66,9.08,7.9,69.75,66.63-10.4Zm291.26-35.67l-4.74-30.01-50.04,7.63,6.72,28.82,48.06-6.45Zm-98.76,58.17l-14.49-81.73-54.38-2.49,22.91,88.57,45.96-4.35Zm47.4-4.47l-17.51-75.15-37.13-1.71,14.35,80.67,40.29-3.82Zm-317.99-47.39l-3.29-29.09-42,5.13,4.48,28.96,40.82-5Zm-48.19,48.96l-11.06-71.2-47.67,5.79,11.19,72.78,47.53-7.37Zm-54.51,8.42l-11.32-72.91-49.77,6.05c-2.2,10.48-7.64,20.01-15.54,27.24l23.44,47.91,53.2-8.3Zm479.82-15.66l-6.58-41.06-47.53,6.32,9.09,39.09,45.03-4.34Zm-372.5-1.05l-3.82-33.69-40.56,4.87,5.39,34.88,38.98-6.05Zm-137.73,124.38l-66.76-135.82c-.36,.03-.72,.11-1.05,.26l17.9,143.97,49.91-8.42Zm-63.73,10.79l-17.91-144.77c-1.71-.13-3.29-.26-5-.39l-28.31,153.72,51.22-8.56Zm340.24-142.53l-59.91,9.35-25.01,89.49,42.92,16.19,42-115.03Zm-67.55,10.53l-36.47,5.66-16.98,68.96,29.49,11.19,23.96-85.81Zm-43.85,6.71l-54.78,8.56,5.66,44.22,33.05,12.5,16.07-65.28Zm296.53,41.19l-4.35-30.93-95.86,9.21,10.4,39.61,89.8-17.9Zm-361.71-2.5l-3.55-27.9-112.58,17.51,14.49,29.61,101.64-19.22Zm214.76-13.69l-34.37-12.11-14.61,40.14,36.87,15.27,12.11-43.29Zm37,13.17l-30.42-10.79-12.24,43.69,57.41,23.95-14.75-56.86Zm-238.59,104.09l-12.24-96.6-46.08,8.69c5.39,15.66,25.41,75.41,32.13,95.15l26.2-7.24Zm292.71-45.93c15.93-10.26,36.61-17.9,60.17-23.56l-3.42-24.75-89.02,17.77,11.98,46.32c6.31-5.82,13.09-11.11,20.28-15.79h0Zm-325.76,55.01l-32.26-95.81-46.35,8.82,47,95.81,31.61-8.82Zm220.55-76.2l-37.26-15.53-23.57,64.75,42.93,14.87,17.91-64.09Zm-117.85,10.53l-65.84-25.01,5.39,42.64,44.9,16.32,15.54-33.95Zm191.32,37.9l-5.27-20.27-61.62-25.53-17.91,63.7,55.96,19.34c8.52-13.22,18.17-25.68,28.84-37.24h0Zm-141.95-18.96l-42.93-16.32-16.85,37.11-8.43,28.16,45.16,13.95,23.04-62.91Zm-67.42,21.58l-41.48-15,3.95,30.93,30.02,9.34,7.51-25.27Zm259.01,20.41l-19.09-32.24c-6.93,5.47-13.45,11.45-19.49,17.9l5.66,33.95,32.92-19.61Zm-145.5,5.92l-43.33-15-8.95,24.61,41.75,17.37,10.53-26.98Z"/>
    <path id="Intersección_2-2" data-name="Intersección 2-2" class="cls-1" d="M1115.67,.04l-27.65,56.33-21.33-5.79c3.03-8.69,11.19-31.98,17.77-50.54h-7.37l-17.11,48.7-31.73-8.69L1023.76,.04h-7.11l11.19,100.15-19.36-2.37L972.94,.16h-14.88l18.7,51.46-42.65,10.01-23.31-59.62,4.6-1.98h-12.9l11.58,29.61-46.35,17.77c-6.88-16.17-14.57-31.98-23.04-47.38h-16.33c21.07,36.33,37.13,77.39,48.06,110.81l-99.81,7.64L796.36,.04h-14.22l-6.32,37.77-57.27-9.74-.53-7.63L730,.04h-8.17l-4.74,8.03-.52-8.03h-6.98l1.97,26.85-41.87-7.11,1.45-19.61h-14.09l-.27,3.65V228.69l12.51,42.72-12.51,1.06v14l16.46-1.38,16.33,55.8-32.79,15.81v25.74l8.69-4.17,30.29,106.61-28.57,16.05-10.4-31.95v22.59l3.82,11.73-3.82,.64v7.05l6.06-.98,20.41,62.65-26.47,10.78v7.61l28.58-11.68,36.6,112.13-65.18-6.2v14.17l98.23,9.27-70.31,80.67c-4.8-.46-18.24-1.81-27.92-2.67v6.86l25.68,2.52-2.63,39.34-23.04-2.93v23.56l20.41,2.54-4.74,29.87c-5.74-.9-11.12-1.74-15.67-2.46v7.21l14.62,2.22-4.87,30.14-9.74-1.28v7.06l8.57,1.19-6.58,41.33-1.98-.19v13.99l55.04,5.28-8.69,61.86c-14.66-3.02-30.25-5.34-46.35-7.08v14.05c2.7,.29,5.37,.6,8.03,.93l-4.08,55.67-3.95,.48v14.2l2.77-.34-2.5,34.74h14.09l7.64-102.79c8.16,1.32,16.06,2.63,23.7,4.34l7.11,98.44h6.98l-6.98-96.73c20.81,5.01,38.98,11.71,52.93,20.79,.92,.66,1.97,1.45,3.03,2.11l-43.58,73.83h8.16l18.56-31.45,35.16,20.93-1.71,10.53h14.22l6.32-38.03c9.55,11.98,18.13,24.7,25.68,38.03h16.33c-1.97-3.68-4.08-7.37-6.32-11.05l52.8-18.3,11.46,29.35h12.9l36.87-15.4,5.66,15.4h14.88l-1.18-3.42,43.06-13.29,1.85,16.71h7.11l-2.24-18.82,33.71-10.53c4.6,1.32,16.2,4.6,29.23,8.16l-7.51,21.32h7.38c2.76-7.76,5.13-14.74,6.85-19.48,10.8,3.03,21.73,6.05,29.89,8.29l-5.39,11.05h26.07l2.37-4.6,15.93,4.6h50.17c-24.23-6.98-46.61-13.56-59.91-17.37l22.38-45.67,52.28,8.82-6.72,54.22h14.09l6.58-51.98,53.46,9.08,7.9,42.9h13.3v-55.89l-3.56-18.86,3.56-1.04v-7.21l-4.35,1.28,4.35-9.39v-33.35l-8.95,19.3-19.62-106.86c6.17-4.15,11.38-9.58,15.28-15.92l13.3,8v-8.29l-10.01-6.03c2.74-6.45,4.18-13.39,4.21-20.4,0-1.05-.13-1.97-.13-3.03l5.92-1.11v-23.79l-12.77,2.39c-7.57-13.07-20.54-22.13-35.42-24.75l-19.62-61.2,67.81-13.58v-7.18l-31.21,6.29c-.79-5-2.37-14.61-4.08-25.01l35.29-4.66v-7.07l-36.34,4.89c-1.59-9.87-3.16-19.61-4.21-25.93l40.56-7.65v-14.23l-43.19,8.07-16.07-73.44,59.26,55.33v-9.71l-60.31-56.16,24.1-29.48,36.21,21.49v-16.2l-27.26-16.21,20.28-24.61,6.98,4.12v-8.23l-2.63-1.56,2.63-3.22v-11l-33.31,40.8-70.31-41.72,103.63-18.61v-23.76l-27.26,4.87-13.17-78.31,40.43-9.61v-7.2l-41.61,9.97-7.77-46.46c17.38-3.28,34.22-6.56,49.38-9.46v-14.23l-32.92,6.31-10.53-73.31,32.26-6.58,11.19,46.62v-30.38l-4.22-17.55,4.22-.85v-14.33l-45.3,9.13-6.19-43.04,51.49-10.15v-7.01l-52.54,10.32-7.5-52.64,60.04-10.28v-14.26l-62.02,10.59-7.38-51.72,69.39-9.48v-14.03l-30.15,4.16-7.64-50.41,32.26,9.34,5.53,29.67V.17h-13.56l5.14,27.64c-16.85-5-45.03-13.17-73.61-21.45l.79-6.19h-14.09l-.26,2.24c-2.63-.79-5.14-1.45-7.77-2.24h-50.16l57.67,16.58,5.13,36.33-92.96-28.82L1141.74,.04h-26.07Zm116.66,21.06l35.95,10.4,8.03,53.43-34.23,4.74-9.75-68.57Zm-566.85,55.01l3.68-49.35,105.47,18.03-7.11,42.38-102.04-11.06Zm449-20.53l12.24-24.87,35.15,11.05-6.58,25.53-40.82-11.71Zm-244-1.59l46.23-17.62,10.53,26.85-48.59,11.45c-2.5-6.85-5.27-13.69-8.16-20.67h-.02Zm291.53,15.13l6.58-25.4,55.3,17.11,3.82,27.11-65.7-18.82Zm-127.07,31.98l-5.92-53.57,55.83,15.27-20.66,42.12-29.24-3.82Zm-93.36-26.98l40.03-9.34,12.64,35.01-25.28,10.4-27.39-36.06Zm148.27,31.73l18.43-37.51,121.67,34.74,3.69,25.53-123.25,17.77-20.54-40.54Zm-206.33-18.03l50.69-11.84,29.5,38.82-28.44,48.43-28.97,.79c-6.28-25.78-13.88-51.21-22.78-76.21h0Zm-221.87,40.66l2.76-38.3,100.86,10.92-5.92,35.67-97.7-8.29Zm349.59-23.43l49.77,6.45-16.59,33.69c-5.22-1.75-10.69-2.64-16.2-2.63-1.1-.02-2.2,.02-3.29,.13l-13.69-37.64Zm-37.79,10.92l23.3-9.61,14.35,39.34c-3.86,1.32-7.54,3.13-10.93,5.39l-26.72-35.13Zm90.86,41.72l21.6-43.96,32.65,64.22-40.03,6.85c-1.83-10.29-6.8-19.76-14.22-27.12h0Zm-288.89-31.98l103.23-7.9c6.19,19.61,10.67,35.93,13.3,46.59l-123.51,3.55,6.98-42.24Zm193.03-5l26.34,34.61c-2.26,1.91-4.33,4.02-6.19,6.32l-45.03,1.32,24.88-42.25Zm-307.19,14.61l97.04,8.29-4.08,24.61-95.59,2.76,2.63-35.66Zm521.82,7.63l51.49-7.37,3.16,22.11-49.51,8.29-5.14-23.03Zm-69.39,9.99l62.41-8.95,5.27,23.29-55.7,9.35-11.98-23.7Zm-113.24,40.8c-.01-15.34,12.42-27.79,27.76-27.8,15.34-.01,27.79,12.42,27.8,27.76,.01,15.34-12.42,27.79-27.76,27.8h-.02c-15.33,0-27.77-12.42-27.78-27.76h0Zm160.38-8.83l78.87-13.42,3.95,27.24-77.82,14.61-5-28.43Zm-217.39,1.32l34.5-.92c-.55,2.77-.77,5.6-.66,8.42,.02,2.73,.24,5.46,.66,8.16l-29.23,14.08-5.27-29.74Zm-59.25,31.98l-3.82-30.14,55.83-1.59,5.79,32.64-44.24,21.32-13.56-22.23Zm189.21-.79c3.1-5.75,5.03-12.06,5.66-18.56l67.94-11.58,15.67,88.84-89.28-58.69Zm-304.69-26.18l104.68-3.03,3.55,28.43-99.28,21.45-8.96-46.85Zm-107.45,3.03l93.23-2.63,3.42,17.9-89.4,9.34-7.24-24.61Zm505.76,26.06l77.69-14.74,2.9,20.66-72.82,37.64-7.77-43.56Zm-449.14,.52l41.35-4.34,15.93,83.19-34.36,16.58-22.91-95.42Zm-47.28,4.87l40.3-4.21,23.44,97.79-32,15.4-31.74-108.97Zm170.78,5.79l37.66-8.15,12.24,20.27-34.5,16.58-15.4-28.7Zm221.47-.26c2.52-2.37,4.82-4.96,6.85-7.76l94.67,62.12,1.18,6.84-77.95,15.79-24.75-76.99Zm-142.6,24.21l66.51-31.97c4.42,6.12,10.13,11.2,16.72,14.87l-10.93,43.56-72.3-26.46Zm-141.29-10.4l55.3-11.98,16.21,30.28-62.28,30-9.22-48.31Zm397.12,26.06l72.55-37.5,5.79,40.93-75.05,15.13-3.29-18.56Zm-174.72,71.48l24.75-97.78h2.1c4.72,.02,9.43-.65,13.96-1.98l27.52,86.2-12.51,30.93-55.82-17.37Zm-127.59-64.62l37.79-18.29,48.19,17.64-9.09,32.64-76.9-31.98Zm69.66,83.83l22.78-81.86,24.62,8.95-20.94,83.05-26.46-10.13Zm-135.76-51.99l57.67-27.76,26.99,11.19-22.91,40.14-61.76-23.56Zm374.08-6.32l74.66-15.14,10.53,73.3-72.42,13.95-12.77-72.12Zm-305.74,32.51l22.78-40.01,49.9,20.79-11.85,42.52-60.83-23.31Zm215.94-14.34l76.11-15.4,12.77,71.99-66.63,12.77-22.25-69.36Zm-334.19,12.24l32.52-15.66,67.94,25.93-78.87,54.1-21.59-64.37Zm279.02,95.29l36.34-89.76,41.48,129.37-77.82-39.61Zm-358.41-57.11l66.76-32.11,21.86,65.41-70.05,32.11-18.56-65.4Zm151.82,59.22l-8.3-53.7,44.24-30.4,26.86,10.26,21.2,108.05c-18.83,6.58-40.69,14.21-59.78,20.92l-24.22-55.14Zm143.52,21.19l26.07-103.18,54.91,17.1-39.63,97.79-41.35-11.71Zm-72.95-92l65.84,25.14-17.12,67.65c-7.11,2.5-17.12,6.05-28.57,9.99l-20.15-102.78Zm303.11,27.64c17.38-3.29,35.55-6.84,53.33-10.26l22.12,131.48-11.32,2.11-64.13-123.32Zm-422.14,16.98l33.84-23.16,7.24,47.25-31.86,3.82-9.22-27.9Zm336.82-.66c15.67-3.03,44.9-8.55,78.21-15l4.87,9.34-65.84,59.62-17.25-53.96Zm55.17,29.09l31.07-28.3,55.83,107.39-35.55,6.45-51.35-85.54Zm-474.95,10.79l70.44-32.24,8.03,24.08-72.16,30.14-6.31-21.98Zm322.33,23.56l13.04-32.24,82.03,41.72-73.61,18.82-21.46-28.3Zm-227.65-28.29l31.34-3.69,23.04,52.77c-14.61,5.13-26.99,9.48-34.11,11.98l-20.27-61.07Zm344.72,26.19l30.29-27.51,49.25,82.12-58.73,10.53-20.8-65.15Zm-394.63-.39l38.18-15.93,18.56,55.54-37.92,11.71-18.82-51.32Zm228.32-6.05l43.06,12.24,20.14,26.59-77.95,19.87,14.75-58.7Zm-92.57,25.79l67.94-23.82-16.07,63.57-38.71,11.58-13.16-51.33Zm-170.26-5.26l28.18-11.71,37.92,103.18-37,11.06-29.09-102.52Zm106.79,27.5l56.88-19.87,13.04,51.06-54.12,16.06-15.8-47.25Zm280.99-10.53l24.62-6.32,12.51,38.82-25.94,8.69-11.19-41.19Zm-367.24,195.44l-60.18-184.51,28.31-15.92,57.67,202.81-25.81-2.37Zm323.39-184.38l37.13-9.47,11.32,41.72-31.47,10.53-16.99-42.78Zm-44.1,86.46l-25.81-14.87,16.33-57.65,39.9-10.13,35.28,88.31-65.7-5.66Zm-243.87-70.93c7.9-2.5,27.26-8.55,37.66-11.71l15.67,46.85-36.48,10.79-16.85-45.93Zm181.84,35.14l6.32-25.14,38.19-9.74-14.61,52.12-29.89-17.24Zm125.61-1.31l63.6-21.19,20.41,63.57-57.94,22.9-26.07-65.28Zm-206.86,1.84l61.76-18.29-15.41,60.81-46.35-42.52Zm300.61-5.79l22.65-4.08,43.72,25.93c2.11,9.99,6.72,30.8,11.72,53.83l-50.04,11.84-28.05-87.52Zm-370.26,108.71l-17.91-76.86,79.66-23.69,52.41,47.77-14.09,55.66-100.07-2.89Zm136.02-44.35l13.17-51.98,57.41,33.03c-6.85,9.21-26.86,35.8-33.05,44.09l-37.53-25.14Zm308.91-37.38l30.42,18.03-20.94,25.53-9.47-43.56Zm-498.92,15.53l29.36-8.69,11.46,49.22-26.86,8.56-13.96-49.09Zm233.33,51.06l34.11-45.4,67.94,5.79,1.32,3.29-69.53,59.09-33.84-22.77Zm125.88-17.77l57.54-22.77,13.17,41.19-55.3,20.14-15.41-38.56Zm-46.75,11.19l26.99-22.9,22.52,56.59-16.99,12.37-32.52-46.07Zm-129.17,3.68l4.87-19.08,35.02,23.56-12.24,15.4-27.65-19.88Zm271.12,3.42l49.38-11.58c7.11,32.11,14.61,66.46,17.64,80.67l-42.41,7.9-24.62-77Zm-425.96,48.7l-12.64-44.35,26.6-8.56,12.9,55.41-26.86-2.5Zm222.4-3.55l56.22-47.64,32.26,45.67-45.56,32.9-42.93-30.93Zm-34.24-24.48c3.95-5,9.48-11.98,12.37-15.66l32.52,21.98-16.59,14.08-28.3-20.4Zm160.5,6.06l54.91-19.87,8.43,26.45c-11.06,5.53-30.29,15.53-50.04,26.85l-13.3-33.43Zm-219.76,73.44l22.38-88.84,62.02,44.61-17.12,57.11-67.28-12.89Zm-94.67-48.3l-7.11-30.27,96.65,2.9-8.82,35.01-80.72-7.64Zm237.14,28.56l64.91-46.99,13.43,33.82c-16.46,9.74-32.26,20.14-43.06,29.48-1.85,1.65-3.61,3.41-5.26,5.26l-30.02-21.58Zm40.95,30.27c1.08-1.16,2.22-2.26,3.42-3.29,24.36-20.92,77.29-48.83,100.6-60.67l15.54,48.43-63.2,63.83-56.36-48.3Zm-322.6,44.62l10.92-92.52,32.66,3.16-12.37,93.97-31.2-4.6Zm223.05-49.22l12.51-41.59,31.6,22.64-13.04,33.82-31.07-14.87Zm-172.49-39.48l71.23,6.71-3.42,13.69-73.86,25.79,6.06-46.19Zm-123.9,122.26l2.76-41.85,66.5-76.33-14.89,124.9-54.38-6.72Zm538.54-98.31l40.69-7.63,9.48,57.91-32,6.45-18.17-56.73Zm-227.27,91.99l35.16-91.07,30.15,21.72c-18.3,27.76-33.18,73.83-41.21,102l-24.09-32.64Zm-199.75-21.58l5.27-40.4,72.82-25.4-18.83,74.62-59.26-8.82Zm72.82,50.54l26.33-104.63,67.02,13.03-30.02,99.36-63.33-7.76Zm278.62-43.3l57.41-58.05,24.75,77.52-37.26,19.1-44.9-38.57Zm-178.68-22.11l10-33.16,30.68,14.74-18.7,48.3-21.98-29.88Zm81.11,22.37c6.45-17.24,13.96-34.22,22.12-46.72l21.99,18.95-19.49,37.24-24.62-9.47Zm31.21,12.24l18.43-35.27,27.13,23.43-23.83,20.27-21.73-8.42Zm-134.84,40.14l20.01-66.46,51.22,69.49c-.53,1.97-1.05,3.82-1.45,5.53l-69.79-8.55Zm-193.43-23.55l4.21-35.01,96.52,14.21-8.16,32.11-92.57-11.32Zm368.16,45.01l-13.56-47.91,24.62-20.92,77.82,66.73c-2.25,3.88-3.97,8.04-5.13,12.38l-83.75-10.27Zm-90.86-11.19c3.42-12.9,9.61-34.22,17.38-55.93l53.19,20.53,12.9,45.67-83.48-10.26Zm167.88-19.48l33.71-17.23,7.24,22.37c-7.72,2.47-14.75,6.71-20.54,12.37l-20.41-17.51Zm-520.9,30.53l4.74-30,53.06,6.45-7.37,31.32c-10.4-1.58-31.6-4.87-50.43-7.77h0Zm71.63-21.85l95.46,11.71-3.69,13.95-98.89,4.6,7.11-30.26Zm117.85,14.48l58.46,7.11-35.29,56.59-23.18-63.7Zm359.86,30.8c-.01-15.34,12.42-27.79,27.76-27.8,15.34-.01,27.79,12.42,27.8,27.76,.01,15.34-12.42,27.79-27.76,27.8h-.02c-15.33,0-27.77-12.43-27.78-27.76Zm-332.08,38.69l38.32-61.46,22.52,2.76,.13,68.17-60.97-9.48Zm-38.97-59.36l35.56,97.39-66.9,23.56,31.34-120.95Zm107.05,69.88l-.13-68.44,74.66,9.08-7.9,69.75-66.63-10.4Zm-291.26-35.66l4.74-30.01,50.04,7.63-6.71,28.82-48.07-6.45Zm98.75,58.17l14.49-81.73,54.38-2.49-22.91,88.57-45.96-4.35Zm-47.4-4.47l17.51-75.15,37.13-1.71-14.35,80.67-40.29-3.82Zm317.99-47.39l3.29-29.09,42,5.13-4.48,28.96-40.81-5Zm48.19,48.96l11.06-71.2,47.67,5.79-11.19,72.78-47.53-7.37Zm54.51,8.42l11.32-72.91,49.77,6.05c2.2,10.48,7.64,20.01,15.54,27.25l-23.44,47.91-53.2-8.3Zm-479.82-15.66l6.58-41.06,47.53,6.32-9.08,39.09-45.03-4.35Zm372.5-1.05l3.82-33.69,40.56,4.87-5.39,34.88-38.98-6.05Zm137.73,124.38l66.76-135.82c.36,.03,.72,.11,1.05,.26l-17.9,143.97-49.91-8.42Zm63.73,10.79l17.91-144.77c1.71-.13,3.29-.26,5-.39l28.31,153.72-51.22-8.55Zm-340.24-142.53l59.91,9.35,25.01,89.49-42.92,16.19-42-115.03Zm67.55,10.53l36.47,5.66,16.98,68.96-29.49,11.19-23.96-85.81Zm43.85,6.71l54.78,8.56-5.66,44.22-33.05,12.5-16.07-65.28Zm-296.53,41.19l4.35-30.93,95.86,9.21-10.4,39.61-89.8-17.9Zm361.71-2.5l3.55-27.9,112.58,17.51-14.49,29.61-101.65-19.22Zm-214.76-13.69l34.37-12.11,14.61,40.14-36.87,15.27-12.12-43.29Zm-37,13.17l30.42-10.79,12.24,43.69-57.41,23.95,14.75-56.86Zm238.59,104.1l12.24-96.6,46.09,8.69c-5.39,15.66-25.41,75.41-32.13,95.15l-26.2-7.24Zm-292.71-45.93c-15.93-10.26-36.61-17.9-60.17-23.56l3.42-24.75,89.02,17.77-11.98,46.32c-6.3-5.82-13.09-11.11-20.28-15.79h0Zm325.76,55.01l32.26-95.81,46.35,8.82-47,95.81-31.61-8.82Zm-220.55-76.2l37.26-15.53,23.57,64.75-42.93,14.87-17.91-64.09Zm117.85,10.53l65.84-25.01-5.39,42.64-44.9,16.32-15.54-33.95Zm-191.32,37.9l5.27-20.27,61.62-25.53,17.91,63.7-55.96,19.34c-8.52-13.22-18.16-25.69-28.83-37.24h0Zm141.95-18.95l42.93-16.32,16.85,37.11,8.43,28.16-45.16,13.95-23.04-62.91Zm67.42,21.58l41.48-15-3.95,30.93-30.02,9.34-7.51-25.27Zm-259.01,20.41l19.09-32.24c6.93,5.47,13.45,11.45,19.49,17.9l-5.66,33.95-32.92-19.61Zm145.5,5.92l43.33-15,8.95,24.61-41.75,17.37-10.53-26.98Z"/>
    <path id="Intersección_2-3" data-name="Intersección 2-3" class="cls-1" d="M1496.31,.03l25.53,56.33,19.69-5.79c-2.8-8.69-10.33-31.98-16.41-50.54h6.81l15.81,48.7,29.3-8.69L1581.17,.03h6.56l-10.33,100.16,17.87-2.37L1628.09,.16h13.74l-17.27,51.46,39.38,10.01,21.52-59.62-4.25-1.97h11.91l-10.69,29.61,42.8,17.77c6.35-16.17,13.45-31.98,21.27-47.38h15.07c-19.45,36.33-34.28,77.39-44.37,110.81l92.15,7.64L1791.13,.03h13.13l5.84,37.77,52.88-9.74,.49-7.63L1852.4,.03h7.54l4.38,8.03,.48-8.03h6.44l-1.82,26.85,38.66-7.11-1.34-19.61h13.01l.24,3.65V228.69l-11.55,42.72,11.55,1.06v14l-15.2-1.38-15.08,55.8,30.27,15.81v25.74l-8.02-4.17-27.96,106.61,26.38,16.05,9.6-31.95v22.59l-3.53,11.73,3.53,.64v7.05l-5.59-.98-18.84,62.65,24.44,10.78v7.61l-26.38-11.68-33.79,112.13,60.18-6.2v14.17l-90.69,9.27,64.91,80.67c4.43-.46,16.84-1.81,25.78-2.67v6.86l-23.72,2.52,2.43,39.34,21.28-2.93v23.56l-18.85,2.54,4.38,29.87c5.3-.9,10.27-1.74,14.47-2.46v7.21l-13.5,2.22,4.5,30.14,9-1.28v7.06l-7.91,1.19,6.08,41.32,1.83-.19v13.99l-50.82,5.28,8.02,61.86c13.53-3.02,27.93-5.34,42.8-7.08v14.05c-2.49,.29-4.96,.6-7.42,.93l3.77,55.67,3.65,.48v14.2l-2.55-.34,2.31,34.74h-13.01l-7.05-102.78c-7.54,1.32-14.83,2.63-21.88,4.34l-6.56,98.44h-6.45l6.45-96.73c-19.21,5.01-35.99,11.71-48.87,20.79-.85,.66-1.82,1.45-2.8,2.11l40.24,73.83h-7.54l-17.14-31.45-32.47,20.93,1.58,10.53h-13.13l-5.84-38.03c-8.81,11.98-16.74,24.7-23.71,38.03h-15.07c1.82-3.68,3.77-7.37,5.84-11.05l-48.75-18.3-10.58,29.35h-11.91l-34.04-15.4-5.22,15.4h-13.74l1.09-3.42-39.76-13.29-1.7,16.71h-6.56l2.07-18.82-31.13-10.53c-4.25,1.32-14.96,4.6-26.99,8.16l6.93,21.32h-6.81c-2.55-7.76-4.74-14.74-6.32-19.48-9.97,3.03-20.06,6.05-27.6,8.29l4.98,11.05h-24.07l-2.19-4.6-14.71,4.6h-46.32c22.37-6.98,43.04-13.56,55.32-17.37l-20.67-45.67-48.27,8.82,6.21,54.22h-13.01l-6.08-51.98-49.36,9.08-7.29,42.9h-12.28v-55.89l3.29-18.85-3.28-1.05v-7.21l4.01,1.28-4.01-9.39v-33.35l8.27,19.3,18.12-106.86c-5.7-4.15-10.51-9.58-14.1-15.92l-12.28,8v-8.29l9.24-6.02c-2.53-6.45-3.86-13.39-3.89-20.4,0-1.05,.12-1.97,.12-3.03l-5.47-1.11v-23.79l11.79,2.39c6.99-13.07,18.96-22.13,32.7-24.75l18.12-61.2-62.61-13.58v-7.18l28.81,6.29c.73-5,2.19-14.61,3.77-25.01l-32.58-4.66v-7.07l33.55,4.89c1.46-9.87,2.92-19.61,3.89-25.93l-37.45-7.65v-14.23l39.88,8.07,14.83-73.44-54.71,55.34v-9.71l55.68-56.16-22.25-29.48-33.43,21.49v-16.2l25.17-16.21-18.72-24.61-6.44,4.12v-8.23l2.43-1.56-2.43-3.22v-11l30.76,40.8,64.92-41.72-95.68-18.62v-23.76l25.17,4.87,12.16-78.31-37.32-9.61v-7.2l38.42,9.97,7.18-46.46c-16.05-3.28-31.59-6.56-45.59-9.46v-14.23l30.39,6.31,9.72-73.31-29.79-6.58-10.33,46.62v-30.38l3.89-17.55-3.89-.85v-14.34l41.83,9.13,5.71-43.03-47.54-10.15v-7.01l48.51,10.32,6.92-52.64-55.44-10.28v-14.26l57.26,10.59,6.81-51.72-64.07-9.48v-14.03l27.84,4.16,7.05-50.41-29.79,9.34-5.1,29.67V.17h12.52l-4.74,27.64c15.56-5,41.58-13.17,67.97-21.45l-.73-6.19h13.01l.24,2.24c2.43-.79,4.74-1.45,7.18-2.24h46.31l-53.25,16.58-4.74,36.33,85.84-28.82L1472.24,.03h24.07Zm-107.72,21.06l-33.19,10.4-7.42,53.43,31.61,4.74,9-68.57Zm523.38,55.01l-3.4-49.35-97.38,18.03,6.56,42.38,94.22-11.06Zm-414.57-20.53l-11.3-24.87-32.46,11.05,6.08,25.53,37.69-11.71Zm225.28-1.59l-42.68-17.62-9.73,26.85,44.86,11.45c2.31-6.85,4.86-13.69,7.54-20.67h.01Zm-269.17,15.13l-6.08-25.4-51.06,17.11-3.53,27.11,60.66-18.82Zm117.32,31.98l5.47-53.56-51.55,15.27,19.07,42.12,27-3.82Zm86.2-26.98l-36.96-9.34-11.67,35.01,23.34,10.4,25.29-36.06Zm-136.9,31.73l-17.02-37.51-112.34,34.74-3.4,25.53,113.79,17.77,18.97-40.54Zm190.51-18.03l-46.81-11.85-27.24,38.82,26.26,48.43,26.75,.79c5.8-25.78,12.82-51.21,21.03-76.21h0Zm204.85,40.67l-2.55-38.3-93.13,10.93,5.47,35.66,90.21-8.29Zm-322.78-23.43l-45.95,6.45,15.32,33.69c4.82-1.75,9.87-2.64,14.96-2.63,1.01-.02,2.03,.02,3.04,.13l12.64-37.64Zm34.89,10.92l-21.51-9.61-13.25,39.34c3.57,1.32,6.96,3.13,10.09,5.39l24.67-35.13Zm-83.89,41.72l-19.94-43.96-30.15,64.23,36.96,6.85c1.69-10.29,6.28-19.76,13.13-27.12h0Zm266.74-31.98l-95.31-7.9c-5.71,19.61-9.85,35.93-12.28,46.59l114.04,3.56-6.44-42.25Zm-178.23-5l-24.32,34.61c2.08,1.91,4,4.02,5.71,6.32l41.58,1.32-22.98-42.25Zm283.63,14.6l-89.6,8.29,3.77,24.61,88.27,2.76-2.43-35.67Zm-481.8,7.63l-47.53-7.37-2.92,22.11,45.71,8.29,4.74-23.03Zm64.07,9.99l-57.63-8.95-4.86,23.29,51.43,9.35,11.06-23.7Zm104.55,40.8c.01-15.34-11.47-27.79-25.63-27.8-14.17-.01-25.66,12.42-25.67,27.76-.01,15.34,11.47,27.79,25.63,27.8h.02c14.16,0,25.64-12.42,25.65-27.76h0Zm-148.08-8.82l-72.82-13.42-3.65,27.24,71.85,14.61,4.62-28.43Zm200.72,1.32l-31.85-.92c.51,2.77,.71,5.6,.61,8.42-.02,2.73-.22,5.46-.61,8.16l26.99,14.08,4.86-29.74Zm54.71,31.98l3.53-30.14-51.55-1.59-5.35,32.64,40.85,21.32,12.52-22.23Zm-174.7-.79c-2.86-5.75-4.64-12.06-5.23-18.56l-62.73-11.58-14.47,88.84,82.43-58.7Zm281.33-26.18l-96.65-3.03-3.28,28.43,91.66,21.45,8.27-46.85Zm99.2,3.03l-86.08-2.63-3.16,17.9,82.55,9.34,6.69-24.61Zm-466.97,26.06l-71.73-14.74-2.68,20.66,67.23,37.64,7.17-43.56Zm414.69,.52l-38.18-4.34-14.71,83.19,31.73,16.58,21.15-95.42Zm43.65,4.87l-37.21-4.21-21.64,97.79,29.55,15.4,29.3-108.97Zm-157.68,5.79l-34.77-8.15-11.3,20.27,31.85,16.58,14.22-28.7Zm-204.48-.26c-2.33-2.37-4.45-4.96-6.32-7.76l-87.41,62.12-1.09,6.84,71.97,15.79,22.85-76.99Zm131.66,24.21l-61.41-31.97c-4.08,6.12-9.35,11.2-15.44,14.87l10.09,43.56,66.75-26.46Zm130.46-10.4l-51.06-11.98-14.96,30.28,57.51,30,8.52-48.3Zm-366.67,26.06l-66.99-37.51-5.35,40.93,69.3,15.13,3.04-18.56Zm161.32,71.47l-22.85-97.78h-1.94c-4.36,.02-8.7-.65-12.89-1.98l-25.41,86.2,11.55,30.93,51.54-17.37Zm117.8-64.62l-34.89-18.29-44.5,17.64,8.39,32.64,71-31.98Zm-64.31,83.83l-21.03-81.86-22.73,8.95,19.33,83.05,24.43-10.13Zm125.35-51.99l-53.25-27.77-24.92,11.19,21.15,40.14,57.02-23.56Zm-345.39-6.32l-68.93-15.14-9.73,73.3,66.87,13.95,11.79-72.11Zm282.3,32.51l-21.03-40.01-46.07,20.79,10.94,42.52,56.16-23.3Zm-199.38-14.34l-70.27-15.4-11.79,71.99,61.52,12.77,20.54-69.35Zm308.56,12.24l-30.03-15.66-62.73,25.93,72.82,54.1,19.94-64.37Zm-257.62,95.29l-33.56-89.76-38.3,129.37,71.85-39.61Zm330.93-57.11l-61.64-32.11-20.18,65.41,64.68,32.11,17.14-65.4Zm-140.18,59.22l7.66-53.7-40.85-30.4-24.8,10.26-19.57,108.05c17.39,6.58,37.57,14.21,55.2,20.92l22.37-55.14Zm-132.52,21.19l-24.07-103.18-50.7,17.11,36.59,97.78,38.17-11.71Zm67.35-92l-60.79,25.14,15.81,67.65c6.56,2.5,15.81,6.05,26.38,9.99l18.6-102.78Zm-279.87,27.64c-16.05-3.29-32.83-6.84-49.24-10.26l-20.42,131.48,10.46,2.11,59.21-123.32Zm389.77,16.98l-31.24-23.16-6.69,47.25,29.42,3.82,8.51-27.9Zm-310.99-.66c-14.47-3.03-41.46-8.55-72.21-15l-4.5,9.34,60.79,59.62,15.93-53.96Zm-50.94,29.09l-28.69-28.3-51.55,107.39,32.83,6.45,47.42-85.54Zm438.52,10.79l-65.04-32.24-7.42,24.08,66.62,30.14,5.83-21.98Zm-297.61,23.56l-12.04-32.24-75.74,41.73,67.97,18.82,19.81-28.3Zm210.19-28.29l-28.94-3.69-21.27,52.77c13.49,5.13,24.92,9.48,31.49,11.98l18.72-61.07Zm-318.28,26.19l-27.96-27.51-45.47,82.12,54.22,10.53,19.21-65.14Zm364.36-.39l-35.25-15.93-17.14,55.54,35.01,11.71,17.38-51.32Zm-210.81-6.05l-39.75,12.24-18.6,26.59,71.97,19.87-13.62-58.7Zm85.47,25.79l-62.74-23.82,14.84,63.57,35.74,11.58,12.16-51.32Zm157.2-5.27l-26.02-11.71-35.01,103.18,34.16,11.06,26.86-102.53Zm-98.6,27.5l-52.52-19.87-12.04,51.07,49.97,16.06,14.59-47.26Zm-259.44-10.52l-22.74-6.32-11.55,38.82,23.95,8.69,10.34-41.19Zm339.07,195.44l55.56-184.52-26.14-15.92-53.25,202.81,23.83-2.37Zm-298.59-184.38l-34.28-9.48-10.46,41.72,29.06,10.53,15.68-42.78Zm40.72,86.46l23.83-14.87-15.07-57.65-36.84-10.13-32.57,88.31,60.66-5.66Zm225.17-70.93c-7.29-2.5-25.17-8.55-34.77-11.71l-14.47,46.85,33.68,10.79,15.56-45.93Zm-167.9,35.14l-5.83-25.14-35.25-9.74,13.49,52.12,27.59-17.24Zm-115.98-1.32l-58.72-21.19-18.84,63.57,53.49,22.9,24.07-65.28Zm190.99,1.84l-57.02-18.29,14.22,60.81,42.8-42.52Zm-277.56-5.79l-20.91-4.08-40.36,25.93c-1.95,9.99-6.2,30.8-10.82,53.83l46.2,11.84,25.9-87.52Zm341.87,108.71l16.54-76.86-73.55-23.69-48.39,47.77,13.01,55.66,92.39-2.89Zm-125.59-44.35l-12.16-51.98-53.01,33.03c6.32,9.21,24.8,35.8,30.51,44.09l34.65-25.14Zm-285.22-37.38l-28.08,18.03,19.33,25.53,8.75-43.56Zm460.65,15.53l-27.11-8.69-10.58,49.22,24.8,8.56,12.89-49.09Zm-215.43,51.06l-31.49-45.4-62.73,5.79-1.21,3.29,64.19,59.09,31.24-22.77Zm-116.23-17.77l-53.13-22.77-12.16,41.19,51.06,20.14,14.23-38.56Zm43.16,11.19l-24.92-22.9-20.79,56.59,15.68,12.38,30.03-46.07Zm119.27,3.69l-4.5-19.08-32.34,23.56,11.3,15.4,25.54-19.88Zm-250.33,3.42l-45.59-11.58c-6.56,32.11-13.49,66.46-16.29,80.67l39.15,7.9,22.73-76.99Zm393.29,48.7l11.67-44.36-24.56-8.56-11.91,55.41,24.8-2.49Zm-205.34-3.55l-51.91-47.64-29.79,45.67,42.06,32.9,39.63-30.93Zm31.61-24.48c-3.65-5-8.75-11.98-11.43-15.66l-30.03,21.98,15.32,14.08,26.13-20.4Zm-148.19,6.06l-50.7-19.87-7.78,26.45c10.21,5.53,27.96,15.53,46.2,26.85l12.28-33.43Zm202.91,73.44l-20.67-88.84-57.26,44.61,15.81,57.11,62.12-12.89Zm87.41-48.3l6.56-30.27-89.24,2.9,8.15,35.01,74.53-7.64Zm-218.96,28.56l-59.94-46.98-12.4,33.82c15.2,9.74,29.79,20.14,39.75,29.48,1.71,1.65,3.33,3.41,4.86,5.26l27.72-21.58Zm-37.81,30.27c-.99-1.16-2.05-2.26-3.16-3.29-22.49-20.93-71.36-48.83-92.88-60.67l-14.35,48.43,58.35,63.83,52.03-48.3Zm297.86,44.62l-10.09-92.52-30.15,3.16,11.43,93.97,28.82-4.61Zm-205.94-49.22l-11.55-41.59-29.18,22.64,12.04,33.82,28.69-14.87Zm159.26-39.48l-65.77,6.71,3.16,13.69,68.2,25.79-5.59-46.19Zm114.4,122.27l-2.55-41.85-61.39-76.34,13.74,124.9,50.2-6.71Zm-497.24-98.31l-37.57-7.63-8.75,57.91,29.55,6.45,16.77-56.73Zm209.84,91.99l-32.46-91.07-27.84,21.72c16.9,27.76,30.64,73.83,38.05,102l22.25-32.64Zm184.43-21.58l-4.86-40.4-67.23-25.4,17.38,74.62,54.71-8.82Zm-67.23,50.54l-24.32-104.64-61.88,13.03,27.72,99.36,58.48-7.76Zm-257.25-43.3l-53.01-58.05-22.85,77.52,34.4,19.1,41.46-38.57Zm164.98-22.11l-9.24-33.17-28.33,14.74,17.27,48.3,20.31-29.88Zm-74.89,22.37c-5.96-17.24-12.89-34.22-20.42-46.72l-20.3,18.95,17.99,37.24,22.73-9.47Zm-28.81,12.24l-17.02-35.27-25.05,23.42,22.01,20.27,20.06-8.42Zm124.49,40.14l-18.48-66.46-47.29,69.49c.49,1.97,.97,3.82,1.34,5.53l64.44-8.55Zm178.59-23.55l-3.89-35.01-89.11,14.22,7.54,32.11,85.47-11.32Zm-339.92,45.01l12.52-47.91-22.74-20.92-71.85,66.73c2.07,3.88,3.67,8.04,4.74,12.38l77.32-10.27Zm83.89-11.19c-3.16-12.9-8.88-34.22-16.05-55.93l-49.12,20.53-11.91,45.67,77.08-10.26Zm-155.01-19.48l-31.12-17.24-6.69,22.37c7.12,2.47,13.62,6.71,18.96,12.37l18.85-17.51Zm480.95,30.53l-4.38-30-48.99,6.45,6.81,31.32c9.6-1.59,29.18-4.88,46.56-7.77Zm-66.14-21.85l-88.14,11.71,3.4,13.95,91.3,4.6-6.56-30.26Zm-108.81,14.48l-53.98,7.11,32.58,56.59,21.4-63.7Zm-332.26,30.8c.01-15.34-11.47-27.79-25.63-27.8s-25.66,12.42-25.67,27.76c-.01,15.34,11.47,27.79,25.63,27.8h.02c14.16,0,25.64-12.43,25.65-27.76h0Zm306.61,38.69l-35.38-61.46-20.79,2.76-.12,68.17,56.29-9.48Zm35.98-59.35l-32.83,97.39,61.77,23.56-28.94-120.95Zm-98.84,69.88l.12-68.44-68.93,9.08,7.29,69.75,61.52-10.4Zm268.92-35.67l-4.38-30.01-46.2,7.63,6.2,28.82,44.37-6.45Zm-91.18,58.17l-13.38-81.73-50.21-2.49,21.15,88.57,42.43-4.35Zm43.76-4.47l-16.17-75.15-34.28-1.71,13.25,80.67,37.2-3.82Zm-293.6-47.39l-3.04-29.09-38.78,5.13,4.13,28.96,37.68-5Zm-44.5,48.96l-10.21-71.2-44.01,5.79,10.33,72.78,43.89-7.37Zm-50.33,8.42l-10.46-72.91-45.96,6.05c-2.03,10.48-7.05,20.01-14.35,27.24l21.64,47.91,49.12-8.3Zm443.02-15.66l-6.08-41.06-43.89,6.32,8.39,39.09,41.58-4.34Zm-343.93-1.05l-3.53-33.69-37.45,4.87,4.98,34.88,35.99-6.05Zm-127.16,124.38l-61.64-135.82c-.34,.03-.66,.11-.97,.26l16.53,143.97,46.09-8.42Zm-58.84,10.79l-16.54-144.77c-1.58-.13-3.04-.26-4.62-.39l-26.14,153.72,47.29-8.56Zm314.14-142.53l-55.32,9.35-23.09,89.49,39.63,16.19,38.78-115.03Zm-62.37,10.53l-33.68,5.66-15.68,68.96,27.23,11.19,22.13-85.81Zm-40.48,6.71l-50.58,8.56,5.23,44.22,30.52,12.5,14.83-65.28Zm273.79,41.19l-4.01-30.93-88.51,9.21,9.6,39.61,82.92-17.9Zm-333.97-2.5l-3.28-27.9-103.94,17.51,13.38,29.61,93.85-19.22Zm198.29-13.69l-31.73-12.11-13.49,40.14,34.04,15.27,11.18-43.29Zm34.16,13.17l-28.08-10.79-11.3,43.69,53.01,23.95-13.62-56.86Zm-220.29,104.09l-11.3-96.6-42.55,8.69c4.98,15.66,23.46,75.41,29.66,95.15l24.19-7.24Zm270.26-45.93c14.71-10.26,33.8-17.9,55.56-23.56l-3.16-24.75-82.19,17.77,11.06,46.32c5.82-5.82,12.09-11.11,18.73-15.79h0Zm-300.77,55.01l-29.79-95.81-42.79,8.82,43.4,95.81,29.18-8.82Zm203.63-76.2l-34.4-15.53-21.76,64.75,39.63,14.87,16.53-64.09Zm-108.81,10.53l-60.79-25.01,4.98,42.64,41.46,16.32,14.35-33.95Zm176.65,37.9l-4.86-20.27-56.9-25.53-16.53,63.7,51.67,19.34c7.86-13.22,16.77-25.68,26.63-37.24h0Zm-131.06-18.96l-39.64-16.32-15.56,37.11-7.78,28.16,41.7,13.95,21.27-62.91Zm-62.25,21.58l-38.3-15,3.65,30.93,27.72,9.34,6.93-25.27Zm239.15,20.41l-17.63-32.24c-6.4,5.47-12.42,11.45-17.99,17.9l5.23,33.95,30.4-19.61Zm-134.34,5.92l-40-15-8.27,24.61,38.55,17.37,9.73-26.98Z"/>
  </g>
</svg>