<?xml version="1.0" encoding="UTF-8"?>
<svg id="Capa_2" data-name="Capa 2" xmlns="http://www.w3.org/2000/svg" viewBox="0 0 241 212.53">
  <defs>
    <style>
      .cls-1, .cls-2 {
        fill: #e73e3a;
      }

      .cls-2 {
        fill-rule: evenodd;
      }

      .cls-3 {
        fill: none;
        stroke: #e10c14;
        stroke-width: .82px;
      }
    </style>
  </defs>
  <g id="Capa_1-2" data-name="Capa 1">
    <g id="b4f059d2-1988-45f6-ab91-4c859189e480_icon_8" data-name="b4f059d2-1988-45f6-ab91-4c859189e480 icon 8">
      <path id="Trazado_1066" data-name="Trazado 1066" class="cls-2" d="M133.71,52.4c-28.13-9.38-58.54-9.38-86.67,0-3.07,1.06-6.42-.56-7.48-3.63-1.06-3.07,.56-6.42,3.63-7.48,.04-.02,.09-.03,.14-.05,30.54-10.18,63.56-10.18,94.1,0,3.07,1.06,4.69,4.41,3.63,7.48-1.05,3.01-4.31,4.64-7.34,3.67h0Z"/>
      <path id="Trazado_1067" data-name="Trazado 1067" class="cls-2" d="M140.86,22.1c-32.19-13.8-68.63-13.8-100.82,0-2.94,1.37-6.44,.09-7.81-2.85-1.37-2.94-.09-6.44,2.85-7.81,.11-.05,.22-.1,.33-.14,35.15-15.06,74.93-15.06,110.08,0,3.02,1.19,4.5,4.61,3.31,7.63-1.19,3.02-4.61,4.5-7.63,3.31-.11-.04-.21-.09-.31-.13Z"/>
      <path id="Trazado_1068" data-name="Trazado 1068" class="cls-2" d="M143.11,81.18H30.13c-10.15,0-18.37,8.23-18.37,18.37h0v82.85c0,10.15,8.23,18.37,18.37,18.37h112.98c10.15,0,18.37-8.23,18.37-18.37V99.55c0-10.15-8.22-18.37-18.37-18.37h0Zm-112.98-11.76C13.49,69.42,0,82.91,0,99.55v82.85c0,16.64,13.49,30.13,30.13,30.13h112.98c16.64,0,30.13-13.49,30.13-30.13h0V99.55c0-16.64-13.49-30.13-30.13-30.13h0s-112.98,0-112.98,0Z"/>
      <path id="Trazado_1069" data-name="Trazado 1069" class="cls-2" d="M224.22,100.9l-30.13,18.29c-.99,.6-1.59,1.67-1.59,2.83v37.92c0,1.16,.6,2.23,1.59,2.83l30.13,18.29c1.56,.95,3.6,.45,4.55-1.11,.31-.52,.48-1.11,.48-1.72V103.73c0-1.83-1.48-3.31-3.31-3.31-.61,0-1.2,.17-1.72,.48Zm-36.23,8.24c-4.5,2.73-7.24,7.61-7.24,12.88v37.92c0,5.26,2.75,10.15,7.25,12.88l30.13,18.29c7.11,4.32,16.38,2.05,20.69-5.06,1.43-2.36,2.19-5.06,2.19-7.82V103.73c0-8.32-6.74-15.06-15.06-15.07-2.76,0-5.46,.76-7.82,2.19l-30.13,18.29Z"/>
      <path id="Trazado_1070" data-name="Trazado 1070" class="cls-3" d="M46.44,125.16l-8.19,10.92v8.19l10.92,16.38c5.46,2.73,16.93,8.19,19.11,8.19s15.47,1.82,21.84,2.73c7.28-1.82,22.39-5.46,24.57-5.46,2.73,0,14.44-11.71,16.38-13.65h0c2.73-2.73,4.55-7.28,5.46-10.92l-2.73-10.92-8.19-8.19-21.84-10.93c-7.28-.91-22.39,0-24.57,0s-15.47,3.64-21.84,5.46l-10.93,8.19Z"/>
      <circle id="Elipse_368" data-name="Elipse 368" class="cls-1" cx="85.64" cy="139.98" r="17.83"/>
      <path id="Trazado_1071" data-name="Trazado 1071" class="cls-2" d="M53.32,126.37c-7.2,5.44-9.72,11.42-9.72,14.61h-11.76c0-8.11,5.39-17.19,14.39-23.99,9.23-6.98,22.75-12.02,40.45-12.02v11.76c-15.44,0-26.39,4.38-33.36,9.64Z"/>
      <path id="Trazado_1072" data-name="Trazado 1072" class="cls-2" d="M119.96,155.59c7.2-5.44,9.72-11.42,9.72-14.61h11.75c0,8.11-5.39,17.19-14.39,23.99-9.23,6.98-22.75,12.02-40.45,12.02v-11.76c15.44,0,26.4-4.38,33.36-9.64Z"/>
      <path id="Trazado_1073" data-name="Trazado 1073" class="cls-2" d="M119.96,126.37c7.2,5.44,9.72,11.42,9.72,14.61h11.75c0-8.11-5.39-17.19-14.39-23.99-9.23-6.98-22.75-12.02-40.45-12.02v11.76c15.44,0,26.4,4.38,33.36,9.64Z"/>
      <path id="Trazado_1074" data-name="Trazado 1074" class="cls-2" d="M53.32,155.59c-7.2-5.44-9.72-11.42-9.72-14.61h-11.76c0,8.11,5.39,17.19,14.39,23.99,9.23,6.98,22.75,12.02,40.45,12.02v-11.76c-15.44,0-26.39-4.37-33.36-9.64Z"/>
    </g>
  </g>
</svg>