<?xml version="1.0" encoding="UTF-8"?>
<svg id="Capa_2" data-name="Capa 2" xmlns="http://www.w3.org/2000/svg" viewBox="0 0 240.99 182.35">
  <defs>
    <style>
      .cls-1 {
        fill: #f9af15;
        fill-rule: evenodd;
      }
    </style>
  </defs>
  <g id="Capa_1-2" data-name="Capa 1">
    <g id="_0b75252e-b85f-439a-ac2f-360d111a9198_icon_5" data-name=" 0b75252e-b85f-439a-ac2f-360d111a9198 icon 5">
      <path id="Trazado_1075" data-name="Trazado 1075" class="cls-1" d="M150.39,170.13c43.33,0,78.46-35.35,78.46-78.95S193.73,12.22,150.39,12.22,71.94,47.57,71.94,91.17s35.13,78.95,78.45,78.95Zm0,12.22c50.04,0,90.6-40.82,90.6-91.17S200.43,0,150.39,0,59.79,40.82,59.79,91.17s40.56,91.17,90.6,91.17h0Z"/>
      <path id="Trazado_1076" data-name="Trazado 1076" class="cls-1" d="M40.47,6.64C40.47,2.97,43.45,0,47.12,0h106.3c3.67,0,6.64,2.97,6.64,6.64s-2.97,6.64-6.64,6.64H47.12c-3.67,0-6.64-2.97-6.64-6.64h0Z"/>
      <path id="Trazado_1077" data-name="Trazado 1077" class="cls-1" d="M40.17,175.7c0-3.67,2.97-6.64,6.64-6.64h112.94c3.67,0,6.64,2.97,6.64,6.64s-2.97,6.64-6.64,6.64H46.81c-3.67,0-6.64-2.97-6.64-6.64h0Z"/>
      <path id="Trazado_1078" data-name="Trazado 1078" class="cls-1" d="M0,97.21c0-3.67,2.97-6.64,6.64-6.64h59.79c3.67,0,6.64,2.97,6.64,6.64s-2.97,6.64-6.64,6.64H6.64c-3.67,0-6.64-2.97-6.64-6.64H0Z"/>
      <path id="Trazado_1079" data-name="Trazado 1079" class="cls-1" d="M184.04,45.5c3.25,1.71,4.49,5.73,2.78,8.97h0s-39.65,75.33-39.65,75.33c-1.71,3.25-5.73,4.49-8.97,2.78-.59-.31-1.13-.71-1.6-1.18l-27.75-27.75c-2.6-2.6-2.6-6.8,0-9.4,2.6-2.6,6.8-2.6,9.4,0l21.37,21.38,35.45-67.36c1.71-3.25,5.73-4.49,8.97-2.78,0,0,0,0,0,0Z"/>
    </g>
  </g>
</svg>