<?xml version="1.0" encoding="UTF-8"?>
<svg id="Capa_2" data-name="Capa 2" xmlns="http://www.w3.org/2000/svg" viewBox="0 0 239.93 229.13">
  <defs>
    <style>
      .cls-1, .cls-2 {
        fill: #4b9ed7;
      }

      .cls-2 {
        fill-rule: evenodd;
      }
    </style>
  </defs>
  <g id="Capa_1-2" data-name="Capa 1">
    <g id="cade9377-49b6-474e-94a6-f91c966316ec_icon_6" data-name="cade9377-49b6-474e-94a6-f91c966316ec icon 6">
      <path id="Trazado_1080" data-name="Trazado 1080" class="cls-2" d="M33.45,182.83c9.33,0,16.89-7.56,16.89-16.9s-7.56-16.9-16.89-16.9-16.89,7.56-16.9,16.89c0,9.33,7.56,16.9,16.9,16.9Zm0,10.48c15.12,0,27.37-12.26,27.37-27.37s-12.26-27.37-27.37-27.37-27.37,12.26-27.37,27.37c0,15.12,12.26,27.37,27.37,27.38h0Z"/>
      <path id="Trazado_1081" data-name="Trazado 1081" class="cls-2" d="M16.63,206.54c-2.42,3.69-4.12,7.79-5.02,12.11H55.3c-.9-4.32-2.6-8.43-5.02-12.11-3.65-5.72-10.05-9.08-16.83-8.84-6.78-.24-13.18,3.12-16.82,8.84Zm49.36,12.11c-2.98-16.55-13.25-31.43-32.53-31.43S3.9,202.1,.93,218.65C.31,222.11,0,225.62,0,229.13H66.91c0-3.51-.31-7.02-.92-10.48Z"/>
      <path id="Trazado_1082" data-name="Trazado 1082" class="cls-2" d="M206.46,182.83c9.33,0,16.89-7.57,16.89-16.9,0-9.33-7.57-16.89-16.9-16.89-9.33,0-16.89,7.57-16.89,16.9,0,9.33,7.57,16.89,16.9,16.89h0Zm0,10.48c15.12,0,27.37-12.26,27.37-27.37s-12.26-27.37-27.37-27.37-27.37,12.26-27.37,27.37h0c0,15.12,12.26,27.37,27.37,27.37Z"/>
      <path id="Trazado_1083" data-name="Trazado 1083" class="cls-2" d="M189.64,206.54c-2.42,3.69-4.12,7.8-5.02,12.11h43.69c-.9-4.32-2.6-8.43-5.02-12.11-3.65-5.72-10.05-9.08-16.83-8.83-6.78-.24-13.18,3.12-16.83,8.83Zm49.36,12.11c-2.98-16.55-13.25-31.43-32.53-31.43s-29.56,14.88-32.53,31.43c-.62,3.46-.93,6.97-.93,10.48h66.92c0-3.51-.31-7.02-.93-10.48Z"/>
      <path id="Trazado_1084" data-name="Trazado 1084" class="cls-2" d="M119.92,44.27c9.33,0,16.9-7.56,16.9-16.89,0-9.33-7.56-16.9-16.89-16.9-9.33,0-16.9,7.56-16.9,16.89h0c0,9.33,7.56,16.9,16.89,16.9Zm0,10.48c15.12,0,27.38-12.25,27.38-27.37C147.3,12.26,135.05,0,119.93,0c-15.12,0-27.38,12.25-27.38,27.37,0,0,0,0,0,0,0,15.12,12.25,27.37,27.37,27.37Z"/>
      <path id="Trazado_1085" data-name="Trazado 1085" class="cls-2" d="M103.11,67.98c-2.42,3.69-4.12,7.79-5.02,12.11h43.69c-.9-4.32-2.6-8.43-5.02-12.11-3.65-5.72-10.05-9.08-16.83-8.84-6.78-.24-13.18,3.12-16.82,8.84Zm49.36,12.11c-2.98-16.55-13.25-31.43-32.53-31.43s-29.56,14.88-32.53,31.43c-.62,3.46-.93,6.97-.93,10.48h66.91c0-3.51-.31-7.02-.92-10.48Z"/>
      <path id="Trazado_1086" data-name="Trazado 1086" class="cls-2" d="M119.84,137.12c-2.28-3.12-3.53-6.87-3.58-10.73h10.48c.05,1.61,.58,3.17,1.51,4.48,.92,1.23,2.47,2.45,5.64,2.45s4.63-1.2,5.48-2.38c.91-1.34,1.41-2.92,1.45-4.54h10.48c-.03,3.82-1.22,7.54-3.42,10.66-2.8,3.88-7.41,6.74-13.99,6.74s-11.21-2.84-14.06-6.68Z"/>
      <path id="Trazado_1087" data-name="Trazado 1087" class="cls-2" d="M89.47,137.06c-2.2-3.13-3.39-6.85-3.42-10.67h10.48c.03,1.62,.53,3.2,1.45,4.54,.85,1.19,2.32,2.39,5.48,2.39,4.11,.25,7.67-2.82,8.03-6.93h10.48c-.34,9.9-8.61,17.67-18.51,17.41-6.57,0-11.19-2.86-13.98-6.74Z"/>
      <path id="Trazado_1088" data-name="Trazado 1088" class="cls-2" d="M146.14,169.46c4.32-13.95,6.6-28.46,6.78-43.07h-10.48c-.17,13.5-2.28,26.91-6.26,39.82-2.2,6.74-4.92,12.44-8.07,16.35-3.11,3.86-6.23,5.51-9.44,5.51v10.48c7.44,0,13.27-4.05,17.59-9.41,4.28-5.31,7.49-12.35,9.88-19.67Z"/>
      <path id="Trazado_1089" data-name="Trazado 1089" class="cls-2" d="M93.57,169.57c-4.71-13.92-7.25-28.48-7.52-43.18h10.48c.27,13.51,2.61,26.9,6.93,39.7,2.37,6.74,5.25,12.45,8.54,16.39,3.26,3.9,6.48,5.58,9.71,5.58v10.48c-7.41,0-13.32-4.03-17.76-9.34-4.41-5.28-7.81-12.3-10.38-19.63Z"/>
      <path id="Trazado_1090" data-name="Trazado 1090" class="cls-1" d="M111.47,108.15h15.26v18.25h-15.26v-18.25Z"/>
      <rect id="Rect치ngulo_307" data-name="Rect치ngulo 307" class="cls-1" x="74.46" y="170.91" width="24.33" height="12.06" transform="translate(-76.87 67.02) rotate(-30)"/>
      <rect id="Rect치ngulo_308" data-name="Rect치ngulo 308" class="cls-1" x="144.47" y="164.78" width="12.06" height="24.33" transform="translate(-77.99 218.81) rotate(-60)"/>
    </g>
  </g>
</svg>