<?xml version="1.0" encoding="UTF-8"?>
<svg id="Capa_2" data-name="Capa 2" xmlns="http://www.w3.org/2000/svg" xmlns:xlink="http://www.w3.org/1999/xlink" viewBox="0 0 279.8 279.8">
  <defs>
    <style>
      .cls-1 {
        filter: url(#drop-shadow-1);
      }

      .cls-2 {
        fill: none;
        stroke: #166494;
        stroke-width: 20px;
      }

      .cls-3 {
        fill: #c6c4c4;
      }
    </style>
    <filter id="drop-shadow-1" filterUnits="userSpaceOnUse">
      <feOffset dx="15" dy="15"/>
      <feGaussianBlur result="blur" stdDeviation="40"/>
      <feFlood flood-color="#166494" flood-opacity="1"/>
      <feComposite in2="blur" operator="in"/>
      <feComposite in="SourceGraphic"/>
    </filter>
  </defs>
  <g id="Capa_1-2" data-name="Capa 1">
    <g class="cls-1">
      <path id="Elipse_364-2" data-name="Elipse 364-2" class="cls-2" d="M139.9,10c71.74,0,129.9,58.16,129.9,129.9s-58.16,129.9-129.9,129.9S10,211.64,10,139.9C10,68.16,68.16,10,139.9,10h0Z"/>
    </g>
    <path id="person_add_FILL0_wght400_GRAD0_opsz48-3" data-name="person add FILL0 wght400 GRAD0 opsz48-3" class="cls-3" d="M183.46,160.75v-23.15h-23.15v-10.7h23.15v-23.13h10.68v23.13h23.15v10.69h-23.14v23.15l-10.68,.02Zm-65.87-14.43c-14.13,.62-26.08-10.33-26.7-24.46-.03-.75-.03-1.5,0-2.24-.62-14.13,10.34-26.08,24.46-26.7,.75-.03,1.49-.03,2.24,0,14.12-.62,26.08,10.33,26.7,24.45,0,0,0,0,0,.01,.04,.75,.04,1.49,0,2.24,.62,14.12-10.33,26.08-24.45,26.7,0,0,0,0-.01,0-.75,.03-1.5,.03-2.24,0h0Zm-56.97,57.15v-16.73c-.04-4,1.07-7.92,3.21-11.3,2.12-3.38,5.23-6.02,8.9-7.57,7.65-3.49,15.61-6.26,23.77-8.29,13.88-3.2,28.31-3.2,42.19,0,8.11,2.01,16.01,4.79,23.59,8.29,3.65,1.66,6.76,4.32,8.98,7.66,2.2,3.32,3.36,7.23,3.32,11.22v16.73H60.62Zm10.69-10.69h92.57v-6.07c0-1.9-.49-3.77-1.43-5.43-.99-1.76-2.56-3.11-4.45-3.83-6.75-3.47-13.9-6.09-21.28-7.82-6.3-1.22-12.71-1.82-19.13-1.79-6.43-.04-12.84,.59-19.14,1.88-7.41,1.79-14.6,4.38-21.45,7.74-1.76,.81-3.22,2.14-4.18,3.82-.99,1.64-1.51,3.52-1.51,5.43v6.08Zm46.29-57.14c8.57,.28,15.74-6.44,16.03-15.01,.01-.34,.01-.69,0-1.03,.28-8.57-6.44-15.74-15.01-16.03,0,0,0,0,0,0-.33-.01-.67-.01-1.02,0-8.57-.28-15.74,6.43-16.03,15,0,0,0,0,0,.01-.01,.34-.01,.68,0,1.02-.29,8.57,6.43,15.75,15,16.04,.34,.01,.69,.01,1.03,0h0Z"/>
  </g>
</svg>