<?xml version="1.0" encoding="UTF-8"?>
<svg id="Capa_2" data-name="Capa 2" xmlns="http://www.w3.org/2000/svg" xmlns:xlink="http://www.w3.org/1999/xlink" viewBox="0 0 440.16 362.16">
  <defs>
    <style>
      .cls-1 {
        fill: #69b763;
        filter: url(#drop-shadow-1);
      }
    </style>
    <filter id="drop-shadow-1" filterUnits="userSpaceOnUse">
      <feOffset dx="15" dy="15"/>
      <feGaussianBlur result="blur" stdDeviation="30"/>
      <feFlood flood-color="#69b763" flood-opacity=".5"/>
      <feComposite in2="blur" operator="in"/>
      <feComposite in="SourceGraphic"/>
    </filter>
  </defs>
  <g id="Capa_1-2" data-name="Capa 1">
    <path id="private_connectivity_FILL0_wght400_GRAD0_opsz48-2" data-name="private connectivity FILL0 wght400 GRAD0 opsz48-2" class="cls-1" d="M205.04,257.01c-23.62,0-43.98-7.8-61.1-23.4-17.12-15.6-26.87-34.88-29.25-57.85h-39.65v-19.5h39.65c2.38-22.97,12.13-42.25,29.25-57.85,17.12-15.6,37.48-23.4,61.1-23.4,23.62,0,43.98,7.8,61.1,23.4,17.12,15.6,26.87,34.88,29.25,57.85h39.65v19.5h-39.65c-2.38,22.97-12.13,42.25-29.25,57.85s-37.48,23.4-61.1,23.4Zm0-19.5c19.93,0,36.83-6.99,50.7-20.96s20.8-30.82,20.8-50.54-6.93-36.83-20.8-50.7-30.77-20.8-50.7-20.8-36.56,6.93-50.54,20.8-20.96,30.77-20.96,50.7c0,19.72,6.99,36.56,20.96,50.54,13.97,13.97,30.82,20.96,50.54,20.96Zm-25.03-27.62h50.05c6.74,.08,12.27-5.32,12.35-12.07,0-.09,0-.19,0-.28v-37.05c.08-6.74-5.32-12.27-12.07-12.35-.09,0-.19,0-.28,0h-.32v-13.32c.08-6.72-2.48-13.2-7.15-18.04-9.03-9.69-24.2-10.23-33.9-1.2-.42,.39-.82,.79-1.2,1.2-4.67,4.84-7.23,11.32-7.15,18.04v13.32h-.32c-6.74-.08-12.27,5.32-12.35,12.07,0,.09,0,.19,0,.28v37.05c-.08,6.74,5.32,12.27,12.07,12.35,.09,0,.19,0,.28,0Zm25.03-21.12c-5.22-.17-9.31-4.53-9.14-9.75,.17-5.22,4.53-9.31,9.75-9.14,5.22,.17,9.31,4.53,9.14,9.75-.08,2.4-1.07,4.68-2.76,6.38-1.85,1.84-4.38,2.84-6.99,2.76Zm-14.95-40.62v-13.32c-.07-4.14,1.44-8.15,4.22-11.21,5.44-5.92,14.65-6.32,20.57-.88,.3,.28,.6,.57,.88,.88,2.79,3.06,4.3,7.07,4.22,11.21v13.32h-29.9Z"/>
  </g>
</svg>