<?xml version="1.0" encoding="UTF-8"?>
<svg id="Capa_2" data-name="Capa 2" xmlns="http://www.w3.org/2000/svg" xmlns:xlink="http://www.w3.org/1999/xlink" viewBox="0 0 435.36 277.68">
  <defs>
    <style>
      .cls-1 {
        filter: url(#drop-shadow-3);
      }

      .cls-1, .cls-2, .cls-3, .cls-4, .cls-5, .cls-6, .cls-7, .cls-8 {
        fill: #f9af15;
      }

      .cls-1, .cls-2, .cls-3, .cls-4, .cls-6, .cls-7, .cls-8 {
        fill-rule: evenodd;
      }

      .cls-2 {
        filter: url(#drop-shadow-2);
      }

      .cls-9 {
        filter: url(#drop-shadow-1);
      }

      .cls-3 {
        filter: url(#drop-shadow-4);
      }

      .cls-5 {
        filter: url(#drop-shadow-7);
      }

      .cls-6 {
        filter: url(#drop-shadow-5);
      }

      .cls-7 {
        filter: url(#drop-shadow-6);
      }

      .cls-8 {
        filter: url(#drop-shadow-8);
      }
    </style>
    <filter id="drop-shadow-1" filterUnits="userSpaceOnUse">
      <feOffset dx="15" dy="15"/>
      <feGaussianBlur result="blur" stdDeviation="30"/>
      <feFlood flood-color="#f9af15" flood-opacity=".5"/>
      <feComposite in2="blur" operator="in"/>
      <feComposite in="SourceGraphic"/>
    </filter>
    <filter id="drop-shadow-2" filterUnits="userSpaceOnUse">
      <feOffset dx="15" dy="15"/>
      <feGaussianBlur result="blur-2" stdDeviation="30"/>
      <feFlood flood-color="#f9af15" flood-opacity=".5"/>
      <feComposite in2="blur-2" operator="in"/>
      <feComposite in="SourceGraphic"/>
    </filter>
    <filter id="drop-shadow-3" filterUnits="userSpaceOnUse">
      <feOffset dx="15" dy="15"/>
      <feGaussianBlur result="blur-3" stdDeviation="30"/>
      <feFlood flood-color="#f9af15" flood-opacity=".5"/>
      <feComposite in2="blur-3" operator="in"/>
      <feComposite in="SourceGraphic"/>
    </filter>
    <filter id="drop-shadow-4" filterUnits="userSpaceOnUse">
      <feOffset dx="15" dy="15"/>
      <feGaussianBlur result="blur-4" stdDeviation="30"/>
      <feFlood flood-color="#f9af15" flood-opacity=".5"/>
      <feComposite in2="blur-4" operator="in"/>
      <feComposite in="SourceGraphic"/>
    </filter>
    <filter id="drop-shadow-5" filterUnits="userSpaceOnUse">
      <feOffset dx="15" dy="15"/>
      <feGaussianBlur result="blur-5" stdDeviation="30"/>
      <feFlood flood-color="#f9af15" flood-opacity=".5"/>
      <feComposite in2="blur-5" operator="in"/>
      <feComposite in="SourceGraphic"/>
    </filter>
    <filter id="drop-shadow-6" filterUnits="userSpaceOnUse">
      <feOffset dx="15" dy="15"/>
      <feGaussianBlur result="blur-6" stdDeviation="30"/>
      <feFlood flood-color="#f9af15" flood-opacity=".5"/>
      <feComposite in2="blur-6" operator="in"/>
      <feComposite in="SourceGraphic"/>
    </filter>
    <filter id="drop-shadow-7" filterUnits="userSpaceOnUse">
      <feOffset dx="15" dy="15"/>
      <feGaussianBlur result="blur-7" stdDeviation="30"/>
      <feFlood flood-color="#f9af15" flood-opacity=".5"/>
      <feComposite in2="blur-7" operator="in"/>
      <feComposite in="SourceGraphic"/>
    </filter>
    <filter id="drop-shadow-8" filterUnits="userSpaceOnUse">
      <feOffset dx="15" dy="15"/>
      <feGaussianBlur result="blur-8" stdDeviation="30"/>
      <feFlood flood-color="#f9af15" flood-opacity=".5"/>
      <feComposite in2="blur-8" operator="in"/>
      <feComposite in="SourceGraphic"/>
    </filter>
  </defs>
  <g id="Capa_1-2" data-name="Capa 1">
    <g class="cls-9">
      <path id="Trazado_1097-2" data-name="Trazado 1097-2" class="cls-4" d="M155.82,16.76h93.1c9.07,0,16.42,7.35,16.42,16.42v3.47h-125.94v-3.46c0-9.07,7.35-16.42,16.42-16.42Zm-16.42,29.83V212.45c0,9.07,7.35,16.42,16.42,16.42h93.1c9.07,0,16.42-7.35,16.42-16.42h0V46.59h-125.94Zm-9.94-13.41c0-14.56,11.8-26.36,26.36-26.36h93.1c14.56,0,26.36,11.8,26.36,26.36V212.45c0,14.56-11.8,26.37-26.36,26.37h-93.1c-14.56,0-26.36-11.8-26.36-26.36,0,0,0,0,0,0V33.18Z"/>
    </g>
    <path id="Trazado_1099" data-name="Trazado 1099" class="cls-2" d="M289.18,147.56c7.03-17.58,7.03-37.19,0-54.76-1.02-2.55,.22-5.44,2.77-6.46,2.55-1.02,5.44,.22,6.46,2.77,7.98,19.95,7.98,42.2,0,62.15-1.02,2.55-3.91,3.79-6.46,2.77-2.55-1.02-3.79-3.91-2.77-6.46h0Z"/>
    <path id="Trazado_1100" data-name="Trazado 1100" class="cls-1" d="M116.09,92.8c-7.03,17.58-7.03,37.19,0,54.76,1.02,2.55-.22,5.44-2.77,6.46-2.55,1.02-5.44-.22-6.46-2.77h0c-7.98-19.95-7.98-42.2,0-62.15,1.02-2.55,3.91-3.79,6.46-2.77,2.55,1.02,3.79,3.91,2.77,6.46Z"/>
    <path id="Trazado_1101" data-name="Trazado 1101" class="cls-3" d="M311.62,154.89c11.43-21.73,11.43-47.69,0-69.42-1.28-2.43-.35-5.44,2.08-6.72s5.44-.35,6.72,2.08c12.96,24.62,12.96,54.05,0,78.68-1.28,2.43-4.29,3.36-6.72,2.08-2.43-1.28-3.36-4.29-2.08-6.72h0Z"/>
    <path id="Trazado_1102" data-name="Trazado 1102" class="cls-6" d="M93.66,85.47c-11.43,21.73-11.43,47.69,0,69.41,1.28,2.43,.35,5.44-2.08,6.72-2.43,1.28-5.44,.35-6.72-2.08-12.96-24.62-12.96-54.05,0-78.68,1.28-2.43,4.29-3.36,6.72-2.08,2.43,1.28,3.36,4.29,2.08,6.72Z"/>
    <path id="Trazado_1103" data-name="Trazado 1103" class="cls-7" d="M240.29,151.34l-30.99-61.98c-1.92-3.84-6.59-5.4-10.43-3.48-1.51,.75-2.73,1.97-3.48,3.48l-30.99,61.98c-1.92,3.84-.36,8.51,3.48,10.43,1.08,.54,2.27,.82,3.48,.82h61.98c4.29,0,7.77-3.48,7.77-7.78,0-1.21-.28-2.4-.82-3.47Zm-22.1-66.43c-4.38-8.75-15.02-12.3-23.77-7.92-3.43,1.71-6.21,4.49-7.92,7.92l-30.99,61.98c-4.38,8.75-.83,19.39,7.92,23.77,2.46,1.23,5.17,1.87,7.92,1.87h61.98c9.78,0,17.72-7.93,17.72-17.72,0-2.75-.64-5.46-1.87-7.92l-30.99-61.98Z"/>
    <circle id="Elipse_370" data-name="Elipse 370" class="cls-5" cx="202.34" cy="146.01" r="6.63"/>
    <path id="Trazado_1104" data-name="Trazado 1104" class="cls-8" d="M202.37,107.9c-2.75,0-4.97,2.23-4.97,4.97h0v16.57c0,2.75,2.23,4.97,4.97,4.97s4.97-2.23,4.97-4.97v-16.57c0-2.75-2.23-4.97-4.97-4.97Z"/>
  </g>
</svg>