<?xml version="1.0" encoding="UTF-8"?>
<svg id="Capa_2" data-name="Capa 2" xmlns="http://www.w3.org/2000/svg" xmlns:xlink="http://www.w3.org/1999/xlink" viewBox="0 0 223.14 314.44">
  <defs>
    <style>
      .cls-1 {
        filter: url(#drop-shadow-3);
      }

      .cls-2 {
        filter: url(#drop-shadow-1);
      }

      .cls-3 {
        fill-rule: evenodd;
      }

      .cls-3, .cls-4 {
        fill: #f9af15;
      }

      .cls-5 {
        filter: url(#drop-shadow-2);
      }
    </style>
    <filter id="drop-shadow-1" filterUnits="userSpaceOnUse">
      <feOffset dx="15" dy="15"/>
      <feGaussianBlur result="blur" stdDeviation="30"/>
      <feFlood flood-color="#f9af15" flood-opacity=".5"/>
      <feComposite in2="blur" operator="in"/>
      <feComposite in="SourceGraphic"/>
    </filter>
    <filter id="drop-shadow-2" filterUnits="userSpaceOnUse">
      <feOffset dx="15" dy="15"/>
      <feGaussianBlur result="blur-2" stdDeviation="30"/>
      <feFlood flood-color="#f9af15" flood-opacity=".5"/>
      <feComposite in2="blur-2" operator="in"/>
      <feComposite in="SourceGraphic"/>
    </filter>
    <filter id="drop-shadow-3" filterUnits="userSpaceOnUse">
      <feOffset dx="15" dy="15"/>
      <feGaussianBlur result="blur-3" stdDeviation="30"/>
      <feFlood flood-color="#f9af15" flood-opacity=".5"/>
      <feComposite in2="blur-3" operator="in"/>
      <feComposite in="SourceGraphic"/>
    </filter>
  </defs>
  <g id="Capa_1-2" data-name="Capa 1">
    <g class="cls-2">
      <path id="Trazado_1093-2" data-name="Trazado 1093-2" class="cls-3" d="M29.06,262.88c-6.9,10.07-11.33,22.98-13.19,36.68H124.85c-1.86-13.7-6.29-26.61-13.19-36.68-8.98-13.11-22.18-21.7-41.3-21.7s-32.31,8.59-41.29,21.7Zm110.78,36.68c-4.47-37.55-26.16-73.25-69.48-73.25S5.35,262.01,.88,299.56C.29,304.5,0,309.46,0,314.44H140.72c0-4.97-.29-9.94-.88-14.88Z"/>
    </g>
    <g class="cls-5">
      <path id="Trazado_1094-2" data-name="Trazado 1094-2" class="cls-3" d="M70.35,224.22c23.58,0,42.69-19.11,42.69-42.69,0-23.58-19.11-42.69-42.69-42.69-23.58,0-42.69,19.11-42.69,42.69h0c0,23.58,19.11,42.69,42.69,42.69Zm0,14.88c31.79,0,57.57-25.77,57.57-57.57,0-31.79-25.77-57.57-57.57-57.57-31.79,0-57.57,25.77-57.57,57.57,0,0,0,0,0,0,0,31.79,25.77,57.57,57.57,57.57h0Z"/>
    </g>
    <g class="cls-1">
      <path id="Trazado_1095-2" data-name="Trazado 1095-2" class="cls-3" d="M157.03,117.36c28.3,0,51.24-22.94,51.24-51.24,0-28.3-22.94-51.24-51.24-51.24-28.3,0-51.24,22.94-51.24,51.24h0c0,28.3,22.94,51.24,51.24,51.24Zm0,14.88c36.51,0,66.12-29.6,66.12-66.12S193.54,0,157.03,0,90.91,29.6,90.91,66.12c0,36.51,29.6,66.12,66.12,66.12h0Z"/>
    </g>
    <circle id="Elipse_369-2" data-name="Elipse 369-2" class="cls-4" cx="157.03" cy="90.91" r="8.26"/>
    <path id="Trazado_1096-2" data-name="Trazado 1096-2" class="cls-3" d="M157.07,29.75c-4.11,0-7.44,3.33-7.44,7.44v28.93c0,4.11,3.33,7.44,7.44,7.44s7.44-3.33,7.44-7.44h0v-28.93c0-4.11-3.33-7.44-7.44-7.44,0,0,0,0,0,0Z"/>
  </g>
</svg>