<?xml version="1.0" encoding="UTF-8"?>
<svg id="Capa_2" data-name="Capa 2" xmlns="http://www.w3.org/2000/svg" viewBox="0 0 432.79 599.38">
  <defs>
    <style>
      .cls-1, .cls-2 {
        fill: #fff;
      }

      .cls-2, .cls-3 {
        fill-rule: evenodd;
      }

      .cls-4, .cls-3, .cls-5 {
        fill: #d92d19;
      }

      .cls-6, .cls-7 {
        fill: none;
      }

      .cls-5 {
        isolation: isolate;
        opacity: .25;
      }

      .cls-7 {
        stroke: #fff;
        stroke-width: 3px;
      }
    </style>
  </defs>
  <g id="Capa_1-2" data-name="Capa 1">
    <g id="Componente_61_2" data-name="Componente 61 2">
      <path id="Trazado_1063" data-name="Trazado 1063" class="cls-1" d="M53.33,451.94c9.94,0,18,8.06,18,18s-8.06,18-18,18-18-8.06-18-18,8.06-18,18-18Z"/>
      <circle id="Elipse_367" data-name="Elipse 367" cx="53.33" cy="469.94" r="7"/>
    </g>
    <g id="Pin_2" data-name="Pin 2">
      <rect id="Rectángulo_305" data-name="Rectángulo 305" class="cls-6" x="238.33" y="166.94" width="40" height="40"/>
      <path id="Trazado_114" data-name="Trazado 114" class="cls-2" d="M255.72,190.74c3.85,0,6.97-3.11,6.98-6.95,0,0,0-.02,0-.02,.03-3.91-3.07-7.12-6.98-7.23-3.85,0-6.97,3.11-6.98,6.95,0,0,0,.02,0,.02,.06,3.87,3.11,7.03,6.98,7.23Zm-11.71-18.94c6.43-6.51,16.92-6.57,23.43-.14,6.51,6.43,6.57,16.92,.14,23.43-.05,.05-.1,.1-.14,.14l-11.71,11.71-11.71-11.71c-6.23-6.57-6.23-16.86,0-23.43Z"/>
    </g>
    <path id="Trazado_116" data-name="Trazado 116" class="cls-7" d="M53.33,485.23l77.55,41.06s16.94-28.23,44.65-8.21c.49-11.1,2.21-22.12,5.13-32.85l28.1-79.55,54.92,11.8,11.8-11.8-24.12-21.56,34.9-60.56-43.62-15.4,8.73-35.41-47.22-15.4,15.19-55.94,44.35,17.45-8.21-12.32"/>
    <g id="Componente_66_1" data-name="Componente 66 1">
      <circle id="Elipse_357" data-name="Elipse 357" class="cls-5" cx="64.49" cy="166.49" r="64.49"/>
      <g id="Componente_38_1" data-name="Componente 38 1">
        <g id="Large_Pin" data-name="Large Pin">
          <rect id="Rectángulo_305-2" data-name="Rectángulo 305-2" class="cls-6" x="48.11" y="144.99" width="32.76" height="32.76"/>
          <path id="Trazado_114-2" data-name="Trazado 114-2" class="cls-3" d="M63.57,164.48c3.15,0,5.71-2.54,5.71-5.69h0v-.03c.02-3.2-2.52-5.83-5.71-5.92-3.15,0-5.71,2.54-5.71,5.69h0v.03c.05,3.17,2.55,5.76,5.71,5.92Zm-9.59-15.51c5.39-5.21,13.97-5.06,19.18,.33,5.08,5.26,5.08,13.6,0,18.85l-9.59,9.59-9.59-9.59c-4.66-5.27-4.25-13.55,0-19.18Z"/>
        </g>
        <ellipse id="Elipse_356" data-name="Elipse 356" class="cls-4" cx="64.49" cy="158.81" rx="8.19" ry="7.68"/>
        <path id="Trazado_1055" data-name="Trazado 1055" class="cls-1" d="M70.82,161.85c.15,.17,.24,.38,.24,.61-.03,.26-.11,.51-.24,.73-.12,.24-.37,.24-.73,.24h-12.84c-.36,.02-.69-.17-.86-.49-.12-.31-.12-.66,0-.97l6.36-11.68c.29-.47,.9-.62,1.37-.34,.14,.08,.25,.2,.34,.34l6.36,11.56Zm-7.22-3.16h0c.24,0,.37,0,.49-.12,0-.24,.12-.37,.12-.49,.12-.61,.24-1.95,.49-3.77,.02-.13-.03-.27-.12-.37,0-.12-.12-.24-.37-.24-.44-.12-.91-.12-1.35,0-.12,0-.24,.12-.37,.24v.37c.24,1.82,.37,3.16,.49,3.77,0,.12,.12,.24,.24,.36s.25,.24,.37,.24h0Zm-.73,3.04c.31,.41,.88,.48,1.29,.18,.07-.05,.13-.11,.18-.18,.12-.24,.37-.49,.37-.73-.02-.28-.15-.55-.37-.73-.31-.41-.88-.48-1.29-.18-.07,.05-.13,.11-.18,.18-.22,.18-.35,.45-.37,.73,0,.29,.13,.56,.37,.73h0Z"/>
      </g>
    </g>
    <g id="Componente_66_2" data-name="Componente 66 2">
      <circle id="Elipse_357-2" data-name="Elipse 357-2" class="cls-5" cx="368.3" cy="534.89" r="64.49"/>
      <g id="Componente_38_1-2" data-name="Componente 38 1-2">
        <g id="Large_Pin-2" data-name="Large Pin-2">
          <rect id="Rectángulo_305-3" data-name="Rectángulo 305-3" class="cls-6" x="351.93" y="513.4" width="32.76" height="32.76"/>
          <path id="Trazado_114-3" data-name="Trazado 114-3" class="cls-3" d="M367.39,532.89c3.15,0,5.71-2.54,5.71-5.69h0v-.03c.02-3.2-2.52-5.83-5.71-5.92-3.15,0-5.71,2.54-5.71,5.69h0v.03c.05,3.17,2.55,5.76,5.71,5.92Zm-9.59-15.51c5.39-5.21,13.97-5.06,19.18,.33,5.08,5.26,5.08,13.6,0,18.85l-9.59,9.59-9.59-9.59c-4.66-5.27-4.25-13.55,0-19.18Z"/>
        </g>
        <ellipse id="Elipse_356-2" data-name="Elipse 356-2" class="cls-4" cx="368.3" cy="527.22" rx="8.19" ry="7.68"/>
        <path id="Trazado_1055-2" data-name="Trazado 1055-2" class="cls-1" d="M374.64,530.26c.15,.17,.24,.38,.24,.61-.03,.26-.11,.51-.24,.73-.12,.24-.37,.24-.73,.24h-12.84c-.36,.02-.69-.17-.86-.49-.12-.31-.12-.66,0-.97l6.36-11.68c.29-.47,.9-.62,1.37-.34,.14,.08,.25,.2,.34,.34l6.36,11.56Zm-7.22-3.16h0c.24,0,.37,0,.49-.12,0-.24,.12-.37,.12-.49,.12-.61,.24-1.95,.49-3.77,.02-.13-.03-.27-.12-.37,0-.12-.12-.24-.37-.24-.44-.12-.91-.12-1.35,0-.12,0-.24,.12-.37,.24v.37c.24,1.82,.37,3.16,.49,3.77,0,.12,.12,.24,.24,.36s.25,.24,.37,.24h0Zm-.73,3.04c.31,.41,.88,.48,1.29,.18,.07-.05,.13-.11,.18-.18,.12-.24,.37-.49,.37-.73-.02-.28-.15-.55-.37-.73-.31-.41-.88-.48-1.29-.18-.07,.05-.13,.11-.18,.18-.22,.18-.35,.45-.37,.73,0,.29,.13,.56,.37,.73h0Z"/>
      </g>
    </g>
    <g id="Componente_66_3" data-name="Componente 66 3">
      <circle id="Elipse_357-3" data-name="Elipse 357-3" class="cls-5" cx="358.99" cy="42.99" r="42.99"/>
      <g id="Componente_38_1-3" data-name="Componente 38 1-3">
        <g id="Large_Pin-3" data-name="Large Pin-3">
          <rect id="Rectángulo_305-4" data-name="Rectángulo 305-4" class="cls-6" x="342.61" y="23.78" width="32.76" height="32.76"/>
          <path id="Trazado_114-4" data-name="Trazado 114-4" class="cls-3" d="M358.07,43.27c3.15,0,5.71-2.54,5.71-5.69h0v-.03c.02-3.2-2.52-5.83-5.71-5.92-3.15,0-5.71,2.54-5.71,5.69h0v.03c.05,3.17,2.55,5.76,5.71,5.92Zm-9.59-15.51c5.39-5.21,13.97-5.06,19.18,.33,5.08,5.26,5.08,13.6,0,18.85l-9.59,9.59-9.59-9.59c-4.66-5.27-4.25-13.55,0-19.18Z"/>
        </g>
        <ellipse id="Elipse_356-3" data-name="Elipse 356-3" class="cls-4" cx="358.99" cy="37.6" rx="8.19" ry="7.68"/>
        <path id="Trazado_1055-3" data-name="Trazado 1055-3" class="cls-1" d="M365.32,40.64c.15,.17,.24,.38,.24,.61-.03,.26-.11,.51-.24,.73-.12,.24-.37,.24-.73,.24h-12.84c-.36,.02-.69-.17-.86-.49-.12-.31-.12-.66,0-.97l6.36-11.68c.29-.47,.9-.62,1.37-.34,.14,.08,.25,.2,.34,.34l6.36,11.56Zm-7.22-3.16h0c.24,0,.37,0,.49-.12,0-.24,.12-.37,.12-.49,.12-.61,.24-1.95,.49-3.77,.02-.13-.03-.27-.12-.37,0-.12-.12-.24-.37-.24-.44-.12-.91-.12-1.35,0-.12,0-.24,.12-.37,.24v.37c.24,1.82,.37,3.16,.49,3.77,0,.12,.12,.24,.24,.36s.25,.24,.37,.24h0Zm-.73,3.04c.31,.41,.88,.48,1.29,.18,.07-.05,.13-.11,.18-.18,.12-.24,.37-.49,.37-.73-.02-.28-.15-.55-.37-.73-.31-.41-.88-.48-1.29-.18-.07,.05-.13,.11-.18,.18-.22,.18-.35,.45-.37,.73,0,.29,.13,.56,.37,.73h0Z"/>
      </g>
    </g>
  </g>
</svg>