<?xml version="1.0" encoding="UTF-8"?>
<svg id="Capa_2" data-name="Capa 2" xmlns="http://www.w3.org/2000/svg" xmlns:xlink="http://www.w3.org/1999/xlink" viewBox="0 0 344.31 286.8">
  <defs>
    <style>
      .cls-1 {
        filter: url(#drop-shadow-1);
      }

      .cls-2 {
        filter: url(#drop-shadow-2);
      }

      .cls-2, .cls-3 {
        fill: #7474b1;
      }
    </style>
    <filter id="drop-shadow-1" filterUnits="userSpaceOnUse">
      <feOffset dx="15" dy="15"/>
      <feGaussianBlur result="blur" stdDeviation="30"/>
      <feFlood flood-color="#7474b1" flood-opacity=".7"/>
      <feComposite in2="blur" operator="in"/>
      <feComposite in="SourceGraphic"/>
    </filter>
    <filter id="drop-shadow-2" filterUnits="userSpaceOnUse">
      <feOffset dx="15" dy="15"/>
      <feGaussianBlur result="blur-2" stdDeviation="30"/>
      <feFlood flood-color="#7474b1" flood-opacity=".7"/>
      <feComposite in2="blur-2" operator="in"/>
      <feComposite in="SourceGraphic"/>
    </filter>
  </defs>
  <g id="Capa_1-2" data-name="Capa 1">
    <g class="cls-1">
      <path id="Trazado_15-2" data-name="Trazado 15-2" class="cls-3" d="M55.78,264.87c15.71-11.45,39.01-28.42,51.78-37.7s28.5-20.75,34.99-25.47l11.79-8.58,1.85,.86c5.36,2.37,11,4.05,16.79,5,7.77,1.18,15.68,1.15,23.44-.1,12.13-2.12,23.5-7.36,32.98-15.22,3.53-3.05,6.81-6.39,9.8-9.98,8.29-10.29,13.51-22.72,15.06-35.85,.54-5.66,.51-11.37-.08-17.03-2.9-22.43-16.4-42.11-36.29-52.88-12.94-6.97-27.74-9.72-42.32-7.87-30.07,3.88-54.26,26.6-60.02,56.36-.88,4.32-1.26,8.72-1.14,13.12l-.06,6.25-8.22,5.85c-4.52,3.23-8.34,5.94-8.5,6.01-.22,.14,.42,1.43,2.95,5.97,1.14,1.93,2.18,3.93,3.11,5.97-.08,.14-9.28,6.67-12.67,8.98-.08,.06,.42,3.54,1.14,7.77,.7,4.2,1.28,7.73,1.28,7.81s-2.33,1.91-5.18,4.04l-5.18,3.88-9.6-4.2c-5.3-2.31-9.98-4.36-10.42-4.54l-.82-.36-3.86,3.23c-3.56,2.97-3.88,3.29-3.82,3.8,.04,.32,.6,4.02,1.26,8.22,.64,4.2,1.17,7.77,1.17,7.91-1.63,1.5-3.36,2.89-5.18,4.16l-5.18,3.88-5.2-2.61-5.2-2.59-3.27,1.95c-3.21,1.91-3.27,1.95-3.17,2.55,.06,.32,.32,2.71,.6,5.28s.54,4.92,.6,5.24c.08,.5-.22,.8-3.82,3.8l-3.93,3.27-7.81-3.9-7.81-3.9-3.72,2.47c-2.05,1.37-3.82,2.55-3.9,2.61-.18,.1,4.88,43.93,5.08,44.13,1.37-.8,2.69-1.7,3.94-2.67,32.22-23.33,112.92-81.52,113.02-81.52,.1,.02,1.29,2.01,2.69,4.44,2.33,4.1,2.49,4.44,2.19,4.74-.2,.18-25.97,18.9-57.3,41.62-31.33,22.7-57.75,41.86-58.73,42.58-1.47,1.08-1.71,1.32-1.39,1.43,.3,.12,9.16,1.41,17.01,2.47,.66,.08,2.19-1,29.27-20.73Zm121.26-75.84c-4.9-.66-9.7-1.88-14.32-3.65-5.55-2.27-10.78-5.28-15.53-8.94-3.78-3.23-7.25-6.8-10.38-10.67-6.45-8.53-10.51-18.62-11.77-29.23-.34-4.57-.34-9.17,0-13.74,1.21-10.05,4.92-19.64,10.8-27.88,5.62-7.76,12.98-14.09,21.49-18.5,6.51-3.32,13.57-5.42,20.83-6.21,4.24-.32,8.5-.32,12.75,0,11.37,1.25,22.14,5.72,31.07,12.86,3.31,2.79,6.37,5.85,9.16,9.16,7.15,8.92,11.62,19.7,12.87,31.07,.35,4.51,.32,9.04-.1,13.54-.79,6.73-2.75,13.27-5.8,19.32-2.86,5.85-6.69,11.18-11.33,15.75-10.38,10.4-23.34,16.29-38.46,17.48-3.76,.11-7.52-.01-11.27-.36Z"/>
    </g>
    <path id="Trazado_16" data-name="Trazado 16" class="cls-2" d="M189.73,181.54c10.8-.86,21.1-4.94,29.55-11.71,9.54-7.77,16.15-18.57,18.72-30.61,1.06-5.51,1.33-11.14,.82-16.73-2.06-18.11-13.22-33.91-29.59-41.92-3.09-1.59-6.35-2.83-9.72-3.68-16.15-4.32-33.39-.8-46.54,9.52-3.13,2.57-6.02,5.42-8.64,8.5-6.01,7.47-9.9,16.41-11.29,25.89-.54,4.56-.61,9.17-.22,13.74,1.02,8.25,3.93,16.16,8.5,23.1,2,3.12,4.37,6,7.05,8.56,8.27,8.28,19.06,13.57,30.67,15.04,3.55,.39,7.13,.49,10.7,.3Zm7.39-41.72c-9.15-1.32-16.32-8.53-17.58-17.68-1-7.26,1.91-14.51,7.65-19.08,3.35-2.74,7.49-4.32,11.81-4.5,5.7-.36,11.29,1.71,15.37,5.7,4.18,3.89,6.54,9.35,6.51,15.06,.01,6.35-2.91,12.35-7.93,16.25-3.15,2.51-6.21,3.74-10.99,4.44-1.61,.15-3.24,.09-4.84-.18Z"/>
  </g>
</svg>