<?xml version="1.0" encoding="UTF-8"?>
<svg id="Capa_2" data-name="Capa 2" xmlns="http://www.w3.org/2000/svg" viewBox="0 0 84.02 16.03">
  <defs>
    <style>
      .cls-1 {
        fill: #fff;
        fill-rule: evenodd;
      }

      .cls-2 {
        fill: none;
      }
    </style>
  </defs>
  <g id="Capa_1-2" data-name="Capa 1">
    <g id="social">
      <g id="Componente">
        <rect id="Rect치ngulo_392" data-name="Rect치ngulo 392" class="cls-2" x="68.02" y=".02" width="16" height="16"/>
        <path id="Trazado_1" data-name="Trazado 1" class="cls-1" d="M77.44,16.02v-7.29h2.49l.36-2.84h-2.85v-1.78c0-.8,.27-1.42,1.42-1.42h1.51V.11c-.35,0-1.24-.09-2.22-.09-1.89-.13-3.53,1.31-3.65,3.2-.01,.18,0,.36,0,.54v2.13h-2.49v2.84h2.49v7.29h2.93Z"/>
      </g>
      <g id="Componente-2">
        <rect id="Rect치ngulo_393" data-name="Rect치ngulo 393" class="cls-2" x="36.02" y=".02" width="16" height="16"/>
        <path id="Trazado_2" data-name="Trazado 2" class="cls-1" d="M41.08,14.99c5.11,.05,9.29-4.06,9.33-9.17,0-.06,0-.11,0-.17v-.44c.62-.47,1.16-1.04,1.6-1.69-.6,.26-1.22,.44-1.87,.53,.66-.42,1.16-1.04,1.42-1.78-.64,.36-1.33,.63-2.04,.8-.61-.69-1.48-1.07-2.4-1.07-1.81,.03-3.26,1.48-3.29,3.29-.02,.24,.01,.48,.09,.71-2.65-.13-5.11-1.39-6.76-3.47-.29,.51-.45,1.1-.44,1.69,.02,1.09,.55,2.11,1.42,2.76-.53-.01-1.06-.16-1.51-.44h0c0,1.57,1.12,2.92,2.67,3.2-.29,.08-.59,.11-.89,.09-.21,.01-.42-.02-.62-.09,.45,1.35,1.69,2.27,3.11,2.31-1.17,.91-2.61,1.41-4.09,1.42-.27,.01-.54-.02-.8-.09,1.47,1.07,3.25,1.63,5.07,1.6"/>
      </g>
      <g id="Componente-3">
        <path id="Trazado_3" data-name="Trazado 3" class="cls-1" d="M8.02,1.44c1.07-.04,2.14-.01,3.2,.09,.52,0,1.03,.08,1.51,.27,.67,.31,1.2,.85,1.51,1.51,.18,.48,.27,1,.27,1.51,0,.8,.09,1.07,.09,3.2,.04,1.07,.01,2.14-.09,3.2,0,.52-.08,1.03-.27,1.51-.31,.67-.85,1.2-1.51,1.51-.48,.18-1,.27-1.51,.27-.8,0-1.07,.09-3.2,.09-1.07,.04-2.14,.01-3.2-.09-.52,0-1.03-.08-1.51-.27-.67-.31-1.2-.85-1.51-1.51-.18-.48-.27-1-.27-1.51,0-.8-.09-1.07-.09-3.2-.04-1.07-.01-2.14,.09-3.2,0-.52,.08-1.03,.27-1.51,.16-.33,.37-.63,.62-.89,.21-.31,.53-.53,.89-.62,.48-.18,1-.27,1.51-.27,1.06-.1,2.13-.13,3.2-.09M8.02,.02c-1.1-.04-2.2,0-3.29,.09-.67,0-1.33,.12-1.95,.36-.54,.18-1.03,.48-1.42,.89-.41,.39-.71,.88-.89,1.42C.18,3.38,.06,4.06,.11,4.73,0,5.82-.02,6.92,.02,8.02c-.04,1.1,0,2.2,.09,3.29,0,.67,.12,1.33,.36,1.96,.18,.54,.48,1.03,.89,1.42,.39,.41,.88,.71,1.42,.89,.62,.24,1.29,.36,1.96,.36,1.09,.1,2.19,.13,3.29,.09,1.1,.04,2.2,0,3.29-.09,.67,0,1.33-.12,1.96-.36,1.08-.37,1.94-1.23,2.31-2.31,.24-.62,.36-1.29,.36-1.96,0-.89,.09-1.15,.09-3.29,.04-1.1,0-2.2-.09-3.29,0-.67-.12-1.33-.36-1.96-.18-.54-.48-1.03-.89-1.42-.39-.41-.88-.71-1.42-.89-.62-.24-1.29-.36-1.96-.36C10.21,0,9.11-.02,8.02,.02m0,3.91c-2.22-.04-4.05,1.73-4.09,3.96,0,.04,0,.09,0,.13,0,2.26,1.83,4.09,4.09,4.09s4.09-1.83,4.09-4.09-1.83-4.09-4.09-4.09h0m0,6.76c-1.45,.03-2.64-1.12-2.67-2.57,0-.03,0-.06,0-.1-.03-1.45,1.12-2.64,2.57-2.67,.03,0,.06,0,.1,0,1.45-.03,2.64,1.12,2.67,2.57,0,.03,0,.06,0,.1,.03,1.45-1.12,2.64-2.57,2.67-.03,0-.06,0-.1,0M12.28,2.77c-.54,0-.98,.44-.98,.98,0,.54,.44,.98,.98,.98,.54,0,.98-.44,.98-.98h0c0-.54-.44-.97-.98-.98"/>
      </g>
    </g>
  </g>
</svg>